<svg xmlns="http://www.w3.org/2000/svg" xmlns:xlink="http://www.w3.org/1999/xlink" viewBox="0 0 8936.69 4305"><defs><style>.a{fill:#563d7c;}.b{fill:#fdfcfd;}.c{fill:#573f7d;}.d{fill:#573e7c;}.e{fill:#4e3276;}.f{fill:#4a2c74;}.g{fill:#4a2c73;}.h{fill:#fff652;}.i{fill:#1c1c1c;}.ah,.i{opacity:0.2;}.j{fill:#f9f9f7;}.k{fill:#fff;}.l{fill:#cecece;}.m{fill:#e0e0e0;}.n{fill:#ededed;}.o{fill:#939393;}.p{fill:#9e9e9e;}.av,.dw,.q{fill:#020202;}.q{opacity:0.08;}.r{fill:#777;}.s{fill:#bfbfbf;}.t{fill:#e6e7e9;}.u{fill:#b8b9bb;}.v{fill:#fefcfe;}.w{fill:#42210b;}.x{mask:url(#a);}.y{fill:#6b3e1f;}.z{fill:#1b1f21;}.aa{fill:#475059;}.ab{fill:#f4ba2e;}.ac{fill:#ffdb92;}.ad{fill:#ffcc5a;}.ae{fill:#cecfd1;}.af,.ah{fill:#231f20;}.af{opacity:0.15;}.ag{fill:#f6f4f4;}.ai{fill:#dedede;}.aj{fill:#2d3538;}.ak{fill:#3a4349;}.al{fill:#010101;}.am{fill:#252b2d;}.an{fill:#414a51;}.ao{fill:#323b3f;}.ap{fill:#8e6040;}.aq{fill:#512d10;}.ar{fill:#eaeaea;}.as{fill:#b2b2b2;}.at{fill:#848484;}.au{fill:#3f4d50;}.av{opacity:0.26;}.aw{fill:#edbe85;}.ax{fill:#fff2e6;opacity:0.5;}.ay{fill:#e2e2e2;}.az{fill:#31373a;}.ba{fill:#05628d;}.bb{fill:#0d6891;}.bc{fill:#0e6892;}.bd{fill:#e5910a;}.be{fill:#e59109;}.bf{fill:#e6930f;}.bg{fill:#0f6992;}.bh{fill:#81c464;}.bi{fill:#937856;}.bj{fill:#927654;}.bk{fill:#4c372c;}.bl{fill:#4e382e;}.bm{fill:#4f3a30;}.bn{fill:#4d372d;}.bo{fill:#412f1f;}.bp{fill:#4f9546;}.bq{fill:#549a4a;}.br{fill:#4b9043;}.bs{fill:#63ac53;}.bt{fill:#5aa84d;}.bu{fill:#6db15b;}.bv{fill:#52a549;}.bw{fill:#77b664;}.bx{fill:#80bb6e;}.by{fill:#86bd75;}.bz{fill:#b8b59a;}.ca{fill:#a8a987;}.cb{fill:#d6d3c1;}.cc{fill:#cac7b0;}.cd{fill:#41b783;}.ce{fill:#35495e;}.cf{fill:#3b8070;}.cg{fill:#f6de1e;}.ch{fill:#fefefe;}.ci{fill:#010100;}.cj{fill:#020200;}.ck{fill:#333;}.cl{fill:#669f64;}.cm{fill:#656565;}.cn{fill:#78b162;}.co{fill:#669f65;}.cp{fill:#3e863d;}.cq{fill:#70a561;}.cr{fill:#74ba59;}.cs{fill:#619958;}.ct{fill:#689f5d;}.cu{fill:#679f5c;}.cv{fill:#6ebe4d;}.cw{fill:#67a15a;}.cx{fill:#71a662;}.cy{fill:#4e8d49;}.cz{fill:#428741;}.da{fill:#40863f;}.db{fill:#56924f;}.dc{fill:#5d9755;}.dd{fill:#6ba269;}.de{fill:#5faa4d;}.df{fill:#fbfcfb;}.dg{fill:#fa5440;}.dh{fill:#e34e28;}.di{fill:#050505;}.dj{fill:#080808;}.dk{fill:#070707;}.dl{fill:#f06529;}.dm{fill:#eae9e9;}.dn{fill:#eae8e7;}.do{fill:#f0662b;}.dp{fill:#fefdfc;}.dq{fill:#fefefd;}.dr{fill:#e34d26;}.ds{fill:#0270ba;}.dt{fill:#29a9df;}.du{fill:#cfcfcf;}.dv{fill:#cecfcf;}.dx{filter:url(#b);}</style><filter id="b" filterUnits="userSpaceOnUse" color-interpolation-filters="sRGB"><feColorMatrix values="-1 0 0 0 1 0 -1 0 0 1 0 0 -1 0 1 0 0 0 1 0"/></filter><mask id="a" x="7786.87" y="1163.11" width="316.79" height="306.46" maskUnits="userSpaceOnUse"><g class="dx"><path class="a" d="M7899.55,1429.28q-37.77-61.44-75.56-122.87a28.6,28.6,0,0,0-.41-3.72c-3.28-13.93,2.14-28,14.32-35.55q56-34.7,112.28-69.06a32.64,32.64,0,0,1,37.23,2.36c1.54,1.22,3.06,2.45,4.59,3.68l75.1,122.12c.18,1.38.25,2.77.55,4.12,1.56,7.16,1.18,14.22-2.12,20.75-2.09,4.14-5.15,7.8-7.78,11.67l-122.12,75.1a5.09,5.09,0,0,0-1.59-.09q-18.69,5.16-33-7.87A4.89,4.89,0,0,0,7899.55,1429.28Zm-21.1-136.72,59.76,97.17a4.51,4.51,0,0,0,1.05-.28c12.91-7.9,25.86-15.74,38.69-23.77a145.63,145.63,0,0,0,15.77-10.88c12.95-10.74,16.69-23.76,10.81-37.54-5.13-12-17.61-23-32.9-18.83a6.88,6.88,0,0,1-2.07-.19,9.45,9.45,0,0,1,.42-1.55c6.26-12.77,4.44-23.83-5.57-33.74-8.05-8-21.11-9.6-33.23-2.64C7913.41,1270.53,7896.17,1281.66,7878.45,1292.56Z"/><path class="b" d="M7878.45,1292.56c17.72-10.9,35-22,52.73-32.25,12.12-7,25.18-5.33,33.23,2.64,10,9.91,11.83,21,5.57,33.74a9.45,9.45,0,0,0-.42,1.55,6.88,6.88,0,0,0,2.07.19c15.29-4.22,27.77,6.83,32.9,18.83,5.88,13.78,2.14,26.8-10.81,37.54a145.63,145.63,0,0,1-15.77,10.88c-12.83,8-25.78,15.87-38.69,23.77a4.51,4.51,0,0,1-1.05.28Zm27,2.77-.72.48a16.37,16.37,0,0,0,1.13,3.38c3.06,5.13,6.22,10.19,9.35,15.28,1.71,2.78,3.43,5.57,5.2,8.46,10-6.17,19.46-11.93,28.84-17.79a18.59,18.59,0,0,0,3.92-3.44c5.18-5.77,5.14-13.75,0-20.37-5.27-6.78-11.24-8.26-18.73-3.89C7924.61,1283.16,7915.08,1289.35,7905.44,1295.33Zm24.19,39.25-.82.53a7.81,7.81,0,0,0,.55,2.32q8,13.13,16.1,26.17c.38.61,1.19.94,1.81,1.4l.75-.43c10.64-6.51,21.41-12.82,31.85-19.63,5.45-3.55,8.26-9,7-15.74-1.37-7.23-5-13.18-12.32-15.53-2.88-.93-6.4.13-9.62.28l-2.42.72Z"/><path class="c" d="M7947.27,1365c-.62-.46-1.43-.79-1.81-1.4q-8.11-13-16.1-26.17a7.81,7.81,0,0,1-.55-2.32l.82-.53,32.87-19.91,2.42-.72c3.22-.15,6.74-1.21,9.62-.28,7.27,2.35,10.95,8.3,12.32,15.53,1.27,6.7-1.54,12.19-7,15.74-10.44,6.81-21.21,13.12-31.85,19.63Z"/><path class="d" d="M7905.44,1295.33c9.64-6,19.17-12.17,29-17.89,7.49-4.37,13.46-2.89,18.73,3.89,5.16,6.62,5.2,14.6,0,20.37a18.59,18.59,0,0,1-3.92,3.44c-9.38,5.86-18.82,11.62-28.84,17.79-1.77-2.89-3.49-5.68-5.2-8.46-3.13-5.09-6.29-10.15-9.35-15.28a16.37,16.37,0,0,1-1.13-3.38Z"/><path class="e" d="M7964.92,1314l-2.42.72Z"/><path class="f" d="M7905.44,1295.33l-.72.48Z"/><path class="e" d="M7929.63,1334.58l-.82.53Z"/><path class="g" d="M7947.27,1365l.75-.43Z"/></g></mask></defs><title>Intro</title><rect class="h" width="8935.77" height="4304.99"/><rect class="i" x="0.41" y="0.04" width="8936.27" height="4304.96"/><rect class="j" x="7581.33" y="3116.11" width="561.32" height="668.46" transform="translate(-268.54 6209.02) rotate(-42.44)"/><rect class="k" x="6841.5" y="3455.91" width="12.24" height="147.49" transform="translate(7596.87 -4137.61) rotate(68.31)"/><rect class="l" x="6906.78" y="3499.78" width="12.24" height="7.84" transform="translate(6211.87 11222.03) rotate(-111.69)"/><rect class="k" x="6914.93" y="3473.16" width="37.98" height="44.52" rx="1.9" ry="1.9" transform="translate(7619.48 -4239.39) rotate(68.31)"/><rect class="k" x="6964.67" y="3419.75" width="65.69" height="101.28" rx="10.51" ry="10.51" transform="translate(7636.3 -4314.26) rotate(68.31)"/><path class="m" d="M6957.58,3511.73l-17.48-44a10.94,10.94,0,0,1,6.12-14.2l77-30.64a11,11,0,0,1,14.21,6.12l17.48,44a11,11,0,0,1-6.12,14.2l-77,30.64a10.85,10.85,0,0,1-4,.78A11,11,0,0,1,6957.58,3511.73Zm67-85.56-77,30.64a7.44,7.44,0,0,0-4.16,9.66l17.48,44a7.44,7.44,0,0,0,9.66,4.16l77-30.64a7.46,7.46,0,0,0,4.16-9.66l-17.48-44a7.47,7.47,0,0,0-9.67-4.17Z"/><rect class="n" x="7157.75" y="2979.42" width="395.11" height="697.36" rx="47.41" ry="47.41" transform="translate(6980.94 11392.62) rotate(-111.69)"/><rect class="o" x="7167.89" y="3056.98" width="372.6" height="542.87" transform="translate(6979.13 11392.02) rotate(-111.69)"/><path class="p" d="M7053.84,3391.71l38.37,96.49a5.84,5.84,0,0,1-3.27,7.6h0a5.86,5.86,0,0,1-7.61-3.27L7043,3396a5.84,5.84,0,0,1,3.28-7.6h0A5.85,5.85,0,0,1,7053.84,3391.71Z"/><path class="q" d="M6996.68,3258l571-227.08a41.54,41.54,0,0,1,53.85,23.34l15.7,39.49L7041.66,3483l-68-171.11A41.47,41.47,0,0,1,6996.68,3258Z"/><rect class="m" x="6985.25" y="3449.97" width="12.31" height="44.73" transform="translate(6348.54 11252.01) rotate(-111.69)"/><path class="k" d="M7415.14,3847c9,22.75,10.14,46.25,2.78,66.33-1.39,3.79-3.06,7.42-4.68,10.92-2.34,5.08-4.55,9.88-5.82,14.86-1.62,6.37-1.55,15.48,4,20.2l-7.95,9.31c-9.79-8.36-10.5-22.29-7.89-32.53a98.82,98.82,0,0,1,6.57-17c1.58-3.44,3.08-6.68,4.3-10,7.77-21.19,4.42-47.13-9.19-71.17-12.66-22.38-32.23-40.61-51.5-57-8.56-7.28-17.55-14.62-27.09-21.33a117.69,117.69,0,0,1-3.08,21c-7.18,29.61-27.29,54.66-52.48,65.38-28.5,12.13-62.74,5-81.41-17a63.76,63.76,0,0,1-11.54-60.83c7.66-22.42,29.23-40.53,54.93-46.13,27.68-6,53.73,2.07,70.7,9.94q5.07,2.34,9.94,5a155.89,155.89,0,0,0-8.76-35.49c-9.47-25.58-24.27-48.44-38.84-69.34-12.78-18.33-26.92-37.08-46.8-47.35-19.34-10-44.54-11.59-71-4.49-14.78,4-30.08,11.15-44.89,18.09-9.39,4.41-19.11,9-28.55,12.62-40,15.52-81.41,31.57-125,38-34.6,5.1-85.19,5.8-129.68-19.88-24.07-13.89-43.38-33.85-61.57-54.17l-25.71,10.4c-16.5,6.67-35.2,14.23-54.92,14-20.07-.28-39.29-9.12-51.41-23.65-13-15.62-17.22-37.53-10.68-55.81,7-19.57,25.87-33.39,45.88-33.62,18.15-.21,33.77,10.07,43.94,17.81,20,15.23,36.86,34.32,53.18,52.79l3.13,3.54L6785,3548l4.58,11.35-26.85,10.86c17,18.87,34.24,36.12,55.61,48.45,41.45,23.92,89.1,23.19,121.78,18.37,42.26-6.24,83-22,122.4-37.31,9-3.51,18.14-7.77,27.78-12.29,15.28-7.16,31.09-14.57,46.91-18.83,29.37-7.89,57.69-6,79.75,5.43,22.36,11.56,38.16,32.5,51.22,51.23,14.32,20.53,30.3,45.15,40.28,72.09a162.68,162.68,0,0,1,10.23,47.52c12.56,8.19,24.13,17.56,35,26.8,20.12,17.09,40.62,36.23,54.23,60.27A123.66,123.66,0,0,1,7415.14,3847Zm-232.35-39.58a49.52,49.52,0,0,0,8.21,13.73c15.05,17.69,44,23.56,67.3,13.63,21.7-9.24,39.09-31.08,45.38-57a109.33,109.33,0,0,0,2.95-26,162.68,162.68,0,0,0-16-8.58c-15.27-7.08-38.59-14.4-63-9.09-21.6,4.71-39.64,19.68-45.95,38.14A51.23,51.23,0,0,0,7182.79,3807.45Zm-562.38-252.24A47.17,47.17,0,0,0,6628,3568c9.86,11.83,25.63,19,42.18,19.25,17.25.24,34.73-6.83,50.16-13.07l21.67-8.77-.26-.3c-15.93-18-32.39-36.65-51.43-51.15-13.87-10.57-25.43-15.44-36.38-15.31-14.76.16-29.26,10.89-34.5,25.51A44.38,44.38,0,0,0,6620.41,3555.21Z"/><path class="k" d="M7313.21,4114.54c37.49-8.07,64.13-20.44,83.86-38.94,24.5-23,35.47-56.46,28-84.49,2.6,2,5.24,3.92,7.85,5.8a477.33,477.33,0,0,0,167.35,76.15l2.8-11.91a465,465,0,0,1-163-74.18c-16.11-11.57-33.3-25.28-33.35-41.66l-12.2-.66c-1.5,13.52,4.13,22.29,9.57,30.77,3.09,4.83,6.29,9.82,8.3,15.93,9.2,28-5.27,58-23.7,75.32-18,16.92-42.84,28.33-78.07,35.91Z"/><ellipse class="r" cx="7697.55" cy="4038.07" rx="11.16" ry="53.67" transform="translate(1099.78 9697.38) rotate(-68.3)"/><path class="k" d="M7740.64,4050.11c11.15,3.51,17.86,23.16,6.38,31a245.12,245.12,0,0,1-36,20l20.69,8.24c5.69,2.26,8.19,9,5.82,14.94l-.46,1.16c-2.37,6-8.75,9-14.44,6.72L7576.52,4074l9.08-22.82,60.62,24.12c-1.41-4.63-8.81-29.12-11-35.53a19.45,19.45,0,0,1,1-15.34,19,19,0,0,1,4.85-5.61c4.53-3.5,10.95-5.2,15.6-2.19C7671.37,4026.25,7728.25,4046.2,7740.64,4050.11Z"/><path class="s" d="M7554.34,4014.9h12.19a6.3,6.3,0,0,1,6.3,6.3v72.73a0,0,0,0,1,0,0H7548a0,0,0,0,1,0,0V4021.2A6.3,6.3,0,0,1,7554.34,4014.9Z" transform="translate(998.2 9580.31) rotate(-68.3)"/><ellipse class="r" cx="7182.59" cy="4092.55" rx="53.67" ry="11.16" transform="translate(-1004.14 2945.37) rotate(-21.7)"/><path class="k" d="M7139.5,4104.59c-11.15,3.51-17.86,23.16-6.38,31a246.13,246.13,0,0,0,36,20l-20.69,8.24c-5.68,2.26-8.19,9-5.82,14.94l.46,1.16c2.37,6,8.76,9,14.44,6.72l146.07-58.12-9.08-22.82-60.62,24.12c1.41-4.63,8.81-29.12,11-35.53a19.45,19.45,0,0,0-1-15.34,18.9,18.9,0,0,0-4.85-5.61c-4.53-3.5-10.95-5.2-15.6-2.19C7208.77,4080.73,7151.89,4100.68,7139.5,4104.59Z"/><path class="s" d="M7307.31,4069.37h24.8a0,0,0,0,1,0,0v72.73a6.3,6.3,0,0,1-6.3,6.3h-12.19a6.3,6.3,0,0,1-6.3-6.3v-72.73a0,0,0,0,1,0,0Z" transform="translate(6208.06 12429.06) rotate(-111.7)"/><path class="t" d="M7614.92,1301.46a345.05,345.05,0,0,0,3.57,49.38c23.92,164.41,165.45,290.61,336.42,290.61,4.94,0,9.81-.13,14.69-.33,181-7.67,325.37-156.8,325.37-339.66,0-187.8-152.26-340-340.06-340S7614.92,1113.66,7614.92,1301.46Z"/><path class="k" d="M7605.17,1301.46a351,351,0,0,0,3.71,50.81c.32,2.08.58,4.1,1,6.11l8.52-8.51,8.7-8.71a325.65,325.65,0,0,1-2.4-39.7c0-182.09,148.16-330.25,330.24-330.25s330.31,148.16,330.31,330.25a329.29,329.29,0,0,1-305.94,329.33L7969,1641.12l-9.94,10c3.64,0,7.28-.13,10.92-.26a348.79,348.79,0,0,0,334.72-349.41c0-192.87-156.93-349.74-349.8-349.74S7605.17,1108.59,7605.17,1301.46Z"/><path class="p" d="M7609.85,1358.38c27.36,167.33,174.68,292.81,345.06,292.81,1.43,0,2.8,0,4.16-.06l9.94-10,10.27-10.33c-3.31.26-6.69.45-10.07.58-4.75.2-9.49.33-14.3.33-162.91,0-303.34-121.32-326.8-282.29-.39-2.73-.78-5.52-1-8.25l-8.7,8.71Z"/><path class="u" d="M7627.07,1341.16c.26,2.73.65,5.52,1,8.25,23.46,161,163.89,282.29,326.8,282.29,4.81,0,9.55-.13,14.3-.33,3.38-.13,6.76-.32,10.07-.58l299.25-302.11-483.28-155.24Z"/><path class="v" d="M8163.31,1275.79h130.4a.18.18,0,0,1,.18.18v50.3a2.45,2.45,0,0,1-2.45,2.45H8163.67a14.26,14.26,0,0,1-14.26-14.26V1289.7A13.91,13.91,0,0,1,8163.31,1275.79Z" transform="translate(16443.29 2604.5) rotate(180)"/><circle class="v" cx="7954.93" cy="1301.46" r="203.69" transform="translate(1409.68 6006.17) rotate(-45)"/><path class="w" d="M7786.87,1301.46c0,92.86,75.25,168.11,168,168.11a168.08,168.08,0,1,0-168-168.11Z"/><g class="x"><path class="y" d="M7786.87,1301.46c0,92.86,75.25,168.11,168,168.11a167.6,167.6,0,0,0,130.49-62.19,166.83,166.83,0,0,0,18.26-76.16c0-92.8-75.25-168.11-168.05-168.11a167.58,167.58,0,0,0-130.48,62.19A166.64,166.64,0,0,0,7786.87,1301.46Z"/></g><path class="v" d="M6971.26,2279.38l-446.38-325.23,544.53-747.39L7515.8,1532a60.08,60.08,0,0,1,13.18,83.94l-29.4,40.34-1.21,1.66-27.83,38.2-1.21,1.66-26.62,36.54-1.21,1.66-26.62,36.54-1.21,1.66-26.62,36.54-1.22,1.66L7055.2,2266.2a60.24,60.24,0,0,1-7.92,8.87c-.52.49-1,.95-1.57,1.4A60.1,60.1,0,0,1,6971.26,2279.38Z"/><path class="z" d="M7086.05,1272.91c-5.07,6.95-13.64,9.34-19.14,5.33s-5.86-12.9-.79-19.85,13.64-9.35,19.14-5.34S7091.12,1266,7086.05,1272.91Z"/><path class="z" d="M7028.9,1351.35c-5.07,7-13.64,9.34-19.14,5.33s-5.86-12.9-.79-19.85,13.64-9.35,19.14-5.34S7034,1344.39,7028.9,1351.35Z"/><path class="z" d="M6972.85,1425.66c-5.07,6.95-13.64,9.34-19.14,5.33s-5.86-12.9-.79-19.86,13.64-9.34,19.14-5.33S6977.92,1418.7,6972.85,1425.66Z"/><path class="z" d="M6918.61,1506.22c-5.07,7-13.64,9.34-19.14,5.33s-5.86-12.9-.79-19.85,13.64-9.35,19.14-5.34S6923.68,1499.26,6918.61,1506.22Z"/><path class="z" d="M6863.81,1581.44c-5.07,7-13.64,9.34-19.14,5.33s-5.86-12.9-.79-19.85,13.63-9.35,19.14-5.34S6868.88,1574.48,6863.81,1581.44Z"/><path class="z" d="M6809,1656.66c-5.06,6.95-13.63,9.34-19.14,5.33s-5.85-12.9-.79-19.85,13.64-9.35,19.15-5.34S6814.07,1649.7,6809,1656.66Z"/><path class="z" d="M6754.2,1731.88c-5.07,6.95-13.64,9.34-19.14,5.33s-5.86-12.9-.79-19.86,13.64-9.34,19.14-5.33S6759.27,1724.92,6754.2,1731.88Z"/><ellipse class="z" cx="6684.59" cy="1806.48" rx="15.58" ry="12.33" transform="translate(1288.22 6145.4) rotate(-53.92)"/><path class="z" d="M6638.54,1890.62c-5.06,7-13.63,9.34-19.14,5.33s-5.85-12.9-.79-19.85,13.64-9.35,19.15-5.34S6643.61,1883.66,6638.54,1890.62Z"/><path class="aa" d="M7084.73,1266.87,7016.22,1217a3,3,0,0,1-.65-4.12h0a3,3,0,0,1,4.13-.65l68.51,49.91a3,3,0,0,1,.65,4.13h0A3,3,0,0,1,7084.73,1266.87Z"/><path class="aa" d="M7075,1278.88,7006.52,1229a3,3,0,0,1-.65-4.13h0a3,3,0,0,1,4.13-.65l68.51,49.92a3,3,0,0,1,.65,4.12h0A3,3,0,0,1,7075,1278.88Z"/><path class="aa" d="M7027.68,1344.85l-68.51-49.92a3,3,0,0,1-.65-4.12h0a3,3,0,0,1,4.13-.65l68.51,49.91a3,3,0,0,1,.65,4.13h0A3,3,0,0,1,7027.68,1344.85Z"/><path class="aa" d="M7018.89,1356.93,6950.38,1307a3,3,0,0,1-.65-4.13h0a3,3,0,0,1,4.13-.65l68.51,49.92a3,3,0,0,1,.65,4.13h0A3,3,0,0,1,7018.89,1356.93Z"/><path class="aa" d="M6971.52,1419.19,6903,1369.27a3,3,0,0,1-.65-4.13h0a3,3,0,0,1,4.13-.65l68.51,49.92a3,3,0,0,1,.65,4.13h0A3,3,0,0,1,6971.52,1419.19Z"/><path class="aa" d="M6962.75,1431.23l-68.51-49.92a3,3,0,0,1-.65-4.13h0a3,3,0,0,1,4.13-.64l68.51,49.91a3,3,0,0,1,.65,4.13h0A3,3,0,0,1,6962.75,1431.23Z"/><path class="aa" d="M6917.33,1499.69l-68.51-49.92a3,3,0,0,1-.65-4.13h0a3,3,0,0,1,4.13-.64l68.51,49.91a3,3,0,0,1,.65,4.13h0A3,3,0,0,1,6917.33,1499.69Z"/><path class="aa" d="M6908.56,1511.73l-68.51-49.92a3,3,0,0,1-.65-4.12h0a3,3,0,0,1,4.13-.65L6912,1507a3,3,0,0,1,.64,4.13h0A3,3,0,0,1,6908.56,1511.73Z"/><path class="aa" d="M6862.55,1574.94,6794,1525a3,3,0,0,1-.65-4.13h0a3,3,0,0,1,4.13-.65l68.51,49.92a3,3,0,0,1,.65,4.13h0A3,3,0,0,1,6862.55,1574.94Z"/><path class="aa" d="M6853.78,1587l-68.52-49.92a3,3,0,0,1-.64-4.13h0a3,3,0,0,1,4.12-.64l68.51,49.91a3,3,0,0,1,.65,4.13h0A3,3,0,0,1,6853.78,1587Z"/><path class="aa" d="M6807.73,1650.25l-68.51-49.91a3,3,0,0,1-.64-4.13h0a3,3,0,0,1,4.12-.65l68.51,49.92a3,3,0,0,1,.65,4.12h0A3,3,0,0,1,6807.73,1650.25Z"/><path class="aa" d="M6799,1662.29l-68.51-49.91a3,3,0,0,1-.65-4.13h0a3,3,0,0,1,4.13-.65l68.51,49.92a3,3,0,0,1,.65,4.13h0A3,3,0,0,1,6799,1662.29Z"/><path class="aa" d="M6752.94,1725.4l-68.51-49.91a3,3,0,0,1-.65-4.13h0a3,3,0,0,1,4.13-.65l68.51,49.92a3,3,0,0,1,.65,4.13h0A3,3,0,0,1,6752.94,1725.4Z"/><path class="aa" d="M6744.17,1737.44l-68.51-49.91a3,3,0,0,1-.65-4.13h0a3,3,0,0,1,4.12-.65l68.52,49.92a3,3,0,0,1,.64,4.13h0A3,3,0,0,1,6744.17,1737.44Z"/><path class="aa" d="M6693.3,1807.26l-68.51-49.92a3,3,0,0,1-.65-4.12h0a3,3,0,0,1,4.13-.65l68.51,49.91a3,3,0,0,1,.65,4.13h0A3,3,0,0,1,6693.3,1807.26Z"/><path class="aa" d="M6684.53,1819.3,6616,1769.38a3,3,0,0,1-.65-4.12h0a3,3,0,0,1,4.13-.65l68.51,49.92a3,3,0,0,1,.64,4.12h0A3,3,0,0,1,6684.53,1819.3Z"/><path class="aa" d="M6637.2,1884.06l-68.51-49.91a3,3,0,0,1-.64-4.13h0a3,3,0,0,1,4.12-.65l68.51,49.92a3,3,0,0,1,.65,4.13h0A3,3,0,0,1,6637.2,1884.06Z"/><path class="aa" d="M6628.43,1896.11l-68.51-49.92a3,3,0,0,1-.65-4.13h0a3,3,0,0,1,4.13-.65l68.51,49.92a3,3,0,0,1,.65,4.13h0A3,3,0,0,1,6628.43,1896.11Z"/><rect class="z" x="7221.68" y="1210.94" width="2.05" height="611.77" transform="translate(1743.59 6461.28) rotate(-53.92)"/><rect class="z" x="7250.72" y="1171.08" width="2.05" height="611.77" transform="translate(1787.72 6468.33) rotate(-53.92)"/><rect class="z" x="7276.13" y="1136.2" width="2.05" height="611.77" transform="translate(1826.37 6474.55) rotate(-53.92)"/><rect class="z" x="7193.85" y="1249.14" width="2.05" height="611.77" transform="translate(1701.24 6454.45) rotate(-53.92)"/><rect class="z" x="7166.02" y="1287.34" width="2.05" height="611.77" transform="translate(1658.93 6447.66) rotate(-53.92)"/><rect class="z" x="7138.18" y="1325.54" width="2.06" height="611.77" transform="translate(1616.61 6440.87) rotate(-53.92)"/><rect class="z" x="7110.6" y="1363.62" width="2.05" height="612.37" transform="translate(1574.27 6434.38) rotate(-53.92)"/><rect class="z" x="7082.77" y="1401.82" width="2.05" height="612.37" transform="translate(1531.95 6427.59) rotate(-53.92)"/><rect class="z" x="7056.14" y="1438.36" width="2.05" height="612.37" transform="translate(1491.47 6421.09) rotate(-53.92)"/><rect class="z" x="7027.1" y="1478.22" width="2.06" height="612.37" transform="translate(1447.31 6414.01) rotate(-53.92)"/><rect class="z" x="7000.48" y="1514.76" width="2.05" height="612.37" transform="matrix(0.59, -0.81, 0.81, 0.59, 1406.84, 6407.52)"/><rect class="z" x="6973.86" y="1551.3" width="2.05" height="612.37" transform="translate(1366.36 6401.02) rotate(-53.92)"/><rect class="z" x="6944.82" y="1591.16" width="2.05" height="612.37" transform="translate(1322.2 6393.94) rotate(-53.92)"/><rect class="z" x="6914.57" y="1632.68" width="2.05" height="612.37" transform="translate(1276.21 6386.56) rotate(-53.92)"/><rect class="z" x="6885.52" y="1672.54" width="2.05" height="612.37" transform="translate(1232.05 6379.47) rotate(-53.92)"/><rect class="z" x="6857.69" y="1710.74" width="2.05" height="612.37" transform="translate(1189.73 6372.68) rotate(-53.92)"/><rect class="z" x="6828.65" y="1750.6" width="2.05" height="612.37" transform="translate(1145.57 6365.6) rotate(-53.92)"/><path class="z" d="M7045.71,2276.47l-493.15-359.29,1.21-1.66,493.51,359.55C7046.76,2275.56,7046.24,2276,7045.71,2276.47Z"/><path class="ab" d="M7761.9,3597.1l67.2,382.77c.41,2.36-2.33,4.8-6.13,5.47l-36.66,6.43c-3.79.67-7.21-.69-7.62-3.05L7711.49,3606a2.54,2.54,0,0,1,0-1l50-8.78A2.42,2.42,0,0,1,7761.9,3597.1Z"/><path class="ac" d="M7801.2,3989.16l-14.89,2.61c-3.79.67-7.21-.69-7.62-3.05L7711.49,3606a2.54,2.54,0,0,1,0-1l14.9-2.61a2.33,2.33,0,0,0,0,.74,2.13,2.13,0,0,0,0,.25l67.2,382.77C7794,3988.46,7797.41,3989.82,7801.2,3989.16Z"/><path class="ad" d="M7744.14,3600.22l67.2,382.77c.41,2.36-.34,4.45-1.67,4.68l-12.92,2.27c-1.33.24-2.75-1.48-3.17-3.83l-67.2-382.77a2.13,2.13,0,0,1,0-.25c0-.24-.06-.48-.08-.72l17.64-3.1A9.41,9.41,0,0,1,7744.14,3600.22Z"/><path class="n" d="M7711.48,3605s7.66-86.58,10.51-87.18,39.58,78.39,39.58,78.39Z"/><path class="ae" d="M6544.38,2518.1a51.34,51.34,0,0,1,68.46,23.51l154.81,316.72a51.34,51.34,0,0,1-23.51,68.46l-439.5,214.82a51.33,51.33,0,0,1-68.47-23.5l-154.8-316.72a51.32,51.32,0,0,1,23.51-68.46Z"/><path class="af" d="M6588.43,3002.9l184.23-131.37c-.36-4.84-5.07-13.43-7.43-18.19L6691,2704.74s-137.88-189.62-138.42-190.27l-176.28,90.64-275.66,184.33,3.59,8.88,437.87,226.81Z"/><path class="ag" d="M6467.62,2512.63a51.34,51.34,0,0,1,71.65,10.3l211.3,282.17a51.35,51.35,0,0,1-10.29,71.66L6348.7,3170a51.33,51.33,0,0,1-71.65-10.3l-211.3-282.17a51.32,51.32,0,0,1,10.29-71.65Z"/><path class="ah" d="M6242.87,3102.9l94.25-61s11-10.46,21.12,1.81,43.95,87,43.95,87Z"/><path class="ai" d="M6237.8,3106.58l83.64-60.71s11-10.46,21.12,1.82,60,82.69,60,82.69Z"/><path class="af" d="M6476.49,2967.43a7.1,7.1,0,0,0,1.4-9.93l-162.24-216.88a7.09,7.09,0,0,0-9.93-1.4h0a7.1,7.1,0,0,0-1.4,9.93L6466.56,2966a7.1,7.1,0,0,0,9.93,1.4Z"/><path class="af" d="M6452.3,2886.81a7.09,7.09,0,0,0,1.4-9.94L6338.53,2724a7.09,7.09,0,0,0-9.93-1.4h0a7.09,7.09,0,0,0-1.4,9.93l115.17,152.88a7.1,7.1,0,0,0,9.93,1.41Z"/><path class="af" d="M6524.75,2932.35a7.1,7.1,0,0,0,1.4-9.93l-162.24-216.88a7.08,7.08,0,0,0-9.93-1.4h0a7.1,7.1,0,0,0-1.4,9.93L6514.82,2931a7.09,7.09,0,0,0,9.93,1.4Z"/><path class="af" d="M6489.06,2827.86a7.1,7.1,0,0,0,1.39-9.94L6391,2685.87a7.08,7.08,0,0,0-9.93-1.4h0a7.08,7.08,0,0,0-1.39,9.93l99.48,132.06a7.1,7.1,0,0,0,9.93,1.4Z"/><path class="af" d="M6533.27,2834.4a7.09,7.09,0,0,0,1.4-9.93l-118.31-157a7.09,7.09,0,0,0-9.93-1.4h0a7.1,7.1,0,0,0-1.4,9.93L6523.34,2833a7.09,7.09,0,0,0,9.93,1.4Z"/><path class="af" d="M6604.59,2874.32a7.11,7.11,0,0,0,1.4-9.94l-162.24-216.87a7.08,7.08,0,0,0-9.93-1.4h0a7.09,7.09,0,0,0-1.39,9.93l162.23,216.88a7.11,7.11,0,0,0,9.93,1.4Z"/><path class="af" d="M6629.45,2856.25a7.1,7.1,0,0,0,1.39-9.93L6468.6,2629.44a7.09,7.09,0,0,0-9.93-1.4h0a7.09,7.09,0,0,0-1.39,9.93l162.23,216.89a7.11,7.11,0,0,0,9.94,1.39Z"/><path class="aj" d="M7306.84,1415.31l79.24,380.46c.49,2.34-2.18,4.87-5.95,5.65l-36.44,7.59c-3.77.79-7.22-.46-7.71-2.81l-79.25-379.58a2.54,2.54,0,0,1,0-1l49.75-11.24A2.64,2.64,0,0,1,7306.84,1415.31Z"/><path class="aa" d="M7358.5,1805.93l-14.81,3.08c-3.77.79-7.22-.46-7.71-2.81l-79.25-379.58a2.54,2.54,0,0,1,0-1l14.81-3.09a2.7,2.7,0,0,0,0,.75.93.93,0,0,0,0,.24l79.24,379.59C7351.27,1805.46,7354.73,1806.71,7358.5,1805.93Z"/><path class="ak" d="M7289.19,1419.86l79.24,379.58c.49,2.35-.2,4.46-1.52,4.74l-12.84,2.67c-1.32.28-2.8-1.39-3.29-3.73l-79.24-379.59a.93.93,0,0,1,0-.24c-.05-.24-.08-.48-.11-.72l17.54-3.65A8.59,8.59,0,0,1,7289.19,1419.86Z"/><path class="y" d="M7256.7,1425.63s4.92-86.78,7.75-87.47,42,76.23,42,76.23Z"/><path class="al" d="M7260.58,1368.27s2.19-30.69,3.69-30.76c1.89-.09,15.72,26.59,15.72,26.59Z"/><path class="am" d="M6203.21,2908.86l-224,317.61c-1.38,2-5.05,1.73-8.2-.49l-30.42-21.46c-3.14-2.21-4.59-5.59-3.21-7.55l224-317.6a2.78,2.78,0,0,1,.72-.69l41.52,29.28A2.63,2.63,0,0,1,6203.21,2908.86Z"/><path class="an" d="M5953,3213.24l-12.36-8.72c-3.14-2.21-4.59-5.59-3.21-7.55l224-317.6a2.78,2.78,0,0,1,.72-.69l12.36,8.72a2.46,2.46,0,0,0-.57.49l-.15.19-224,317.61C5948.4,3207.64,5949.84,3211,5953,3213.24Z"/><path class="ao" d="M6188.48,2898.47l-224,317.61c-1.38,2-3.39,2.89-4.49,2.11l-10.73-7.56c-1.1-.78-.89-3,.49-4.94l224-317.61.15-.19a6.36,6.36,0,0,1,.46-.57l14.64,10.33A9.16,9.16,0,0,1,6188.48,2898.47Z"/><path class="ap" d="M6162.08,2878.67s66.78-55.63,69.22-54-27.67,83.35-27.67,83.35Z"/><path class="ao" d="M6206.65,2842.35s23.92-19.34,25-18.29c1.35,1.32-8.7,29.64-8.7,29.64Z"/><path class="ak" d="M5315.51,1891.55c6.83,21.64,259.54,262.24,500.35,467.59,249.64,212.88,876.85,553.23,876.85,553.23,433,173.18,1134.42,255.89,1134.42,255.89l444.74-9.48-8.59-754-1153.65,26.95c-187.83-122.26-673.91-249.26-806.23-301.1-21.62-8.47-33.86-13.18-33.86-13.18-65.42-56.07-149.56-59.37-195.66-85-62.67-34.92-123.62-59.81-176.66-108.11-50.49-46-127.21-71.64-182.05-105.78-81.08-50.48-136.42-101.34-168.25-115.9-10.56-4.84-16.48-7.36-16.48-7.36C5306.23,1701.47,5315.51,1891.55,5315.51,1891.55Z"/><path class="z" d="M5546.92,1702.65C5772,1928.72,6579.75,2624,6579.75,2624l8.9-300.14c-21.63-8.47-335.1-219.45-335.1-219.45-84.67-44.55-211.7-114.4-258.63-141.59-91-52.68-242.08-138.25-306.85-176.58Z"/><path class="aa" d="M4996.75,2803.06,5246,2759.69s623.7-151.14,866.75-178.43c0,0,588.78-74,792.89-91.64,0,0,1131.55-51.93,1296.48-64.3L8298.86,1957l-440.13-219.66s-490.48,84.43-992.88,181.47c-399.42,77.16-806.4,162.3-980.44,219.32L5431,2289.1c-49,16.27-261.34,94.23-316.07,127.38-35.24,21.36-77.76,17.63-123.22,84,0,0-90,51-147.71,145.86,0,0-48.6-12.13-50.66,20.86S4879.24,2803.06,4996.75,2803.06Z"/><path class="z" d="M4736.74,1434.79c0,189.36,195.05,270.54,295.61,299.81a508.14,508.14,0,0,1,126,56l124.17,77.11s9.28-180.91,208.74-199.46l-343.85-287.59-75.71-63.33c-55.34-48.51-146.29-94.4-216.25-71.54-32.86,10.73-64.56,30.17-86.92,64.07h0C4749.13,1339.36,4736.74,1379.73,4736.74,1434.79Z"/><path class="aq" d="M8456.68,3207.11s-234.66,45.08-245.06-9.21C8094.72,2587.8,8199,1700.73,8199,1700.73l305.18,23.4Z"/><path class="aj" d="M4991.71,2500.44c538.37-286.15,1894.45-506.6,1894.45-506.6l-20.31-75c-399.42,77.16-806.4,162.3-980.44,219.32L5431,2289.1c-49,16.27-256.72,84.23-313.8,113.13C5066,2428.14,5003.85,2474.78,4991.71,2500.44Z"/><rect class="ar" x="6942.84" y="1981.63" width="1348.27" height="942.13" rx="73.87" ry="73.87" transform="translate(10069.68 -5164.28) rotate(90)"/><rect class="as" x="6855.95" y="2208.13" width="1180.35" height="483.27" rx="27.92" ry="27.92" transform="translate(9895.89 -4996.36) rotate(90)"/><rect class="s" x="7668.56" y="2294.37" width="439.66" height="319.25" rx="19.17" ry="19.17" transform="translate(10342.39 -5434.39) rotate(90)"/><rect class="k" x="7214.34" y="1896.13" width="73.22" height="44.75" rx="11.91" ry="11.91" transform="translate(9169.45 -5332.45) rotate(90)"/><rect class="k" x="7214.34" y="1978.18" width="73.22" height="44.75" rx="11.91" ry="11.91" transform="translate(9251.5 -5250.4) rotate(90)"/><rect class="k" x="7214.34" y="2060.23" width="73.22" height="44.75" rx="11.91" ry="11.91" transform="matrix(0, 1, -1, 0, 9333.55, -5168.35)"/><rect class="k" x="7214.34" y="2142.28" width="73.22" height="44.75" rx="11.91" ry="11.91" transform="translate(9415.6 -5086.3) rotate(90)"/><rect class="k" x="7214.34" y="2224.33" width="73.22" height="44.75" rx="11.91" ry="11.91" transform="translate(9497.65 -5004.25) rotate(90)"/><rect class="k" x="7214.34" y="2306.38" width="73.22" height="44.75" rx="11.91" ry="11.91" transform="translate(9579.7 -4922.2) rotate(90)"/><rect class="k" x="7214.34" y="2388.42" width="73.22" height="44.75" rx="11.91" ry="11.91" transform="translate(9661.75 -4840.15) rotate(90)"/><rect class="k" x="7214.34" y="2470.47" width="73.22" height="44.75" rx="11.91" ry="11.91" transform="translate(9743.8 -4758.1) rotate(90)"/><rect class="k" x="7214.34" y="2552.52" width="73.22" height="44.75" rx="11.91" ry="11.91" transform="translate(9825.85 -4676.05) rotate(90)"/><rect class="k" x="7214.34" y="2634.57" width="73.22" height="44.75" rx="11.91" ry="11.91" transform="translate(9907.9 -4594) rotate(90)"/><rect class="k" x="7214.34" y="2716.62" width="73.22" height="44.75" rx="11.91" ry="11.91" transform="translate(9989.94 -4511.95) rotate(90)"/><rect class="k" x="7214.34" y="2798.67" width="73.22" height="44.75" rx="11.91" ry="11.91" transform="translate(10071.99 -4429.9) rotate(90)"/><rect class="k" x="7214.34" y="2880.72" width="73.22" height="44.75" rx="11.91" ry="11.91" transform="translate(10154.04 -4347.85) rotate(90)"/><rect class="k" x="7214.34" y="2962.77" width="73.22" height="44.75" rx="11.91" ry="11.91" transform="translate(10236.09 -4265.8) rotate(90)"/><rect class="k" x="7280.03" y="1884.49" width="66.39" height="66.39" rx="3.14" ry="3.14" transform="translate(9230.91 -5395.54) rotate(90)"/><rect class="k" x="7356.91" y="2004.9" width="66.39" height="66.39" rx="3.14" ry="3.14" transform="translate(9428.2 -5352.01) rotate(90)"/><rect class="k" x="7433.79" y="2022.64" width="66.39" height="66.39" rx="3.14" ry="3.14" transform="translate(9522.82 -5411.15) rotate(90)"/><rect class="k" x="7510.67" y="2063.97" width="66.39" height="66.39" rx="3.14" ry="3.14" transform="translate(9641.03 -5446.7) rotate(90)"/><rect class="k" x="7591.76" y="1880.26" width="66.39" height="74.85" rx="3.34" ry="3.34" transform="translate(9542.64 -5707.27) rotate(90)"/><rect class="k" x="7591.76" y="1961.13" width="66.39" height="74.85" rx="3.34" ry="3.34" transform="translate(9623.51 -5626.4) rotate(90)"/><rect class="k" x="7591.76" y="2039.56" width="66.39" height="74.85" rx="3.34" ry="3.34" transform="translate(9701.94 -5547.97) rotate(90)"/><rect class="k" x="7581.67" y="2128.73" width="86.57" height="74.85" rx="3.81" ry="3.81" transform="translate(9791.11 -5458.8) rotate(90)"/><rect class="k" x="7581.67" y="2620.3" width="86.57" height="74.85" rx="3.81" ry="3.81" transform="translate(10282.67 -4967.23) rotate(90)"/><rect class="k" x="7592.2" y="2711.3" width="65.49" height="74.85" rx="3.31" ry="3.31" transform="translate(10373.67 -4876.23) rotate(90)"/><rect class="k" x="7433.6" y="2376.06" width="382.71" height="74.85" rx="8.01" ry="8.01" transform="translate(10038.43 -5211.47) rotate(90)"/><rect class="k" x="7510.67" y="2143.05" width="66.39" height="66.39" rx="3.14" ry="3.14" transform="translate(9720.11 -5367.62) rotate(90)"/><rect class="k" x="7510.67" y="2222.13" width="66.39" height="66.39" rx="3.14" ry="3.14" transform="translate(9799.19 -5288.54) rotate(90)"/><rect class="k" x="7510.67" y="2301.21" width="66.39" height="66.39" rx="3.14" ry="3.14" transform="translate(9878.27 -5209.46) rotate(90)"/><rect class="k" x="7510.67" y="2380.29" width="66.39" height="66.39" rx="3.14" ry="3.14" transform="translate(9957.35 -5130.38) rotate(90)"/><rect class="k" x="7510.67" y="2459.37" width="66.39" height="66.39" rx="3.14" ry="3.14" transform="translate(10036.43 -5051.3) rotate(90)"/><rect class="k" x="7510.67" y="2538.45" width="66.39" height="66.39" rx="3.14" ry="3.14" transform="translate(10115.51 -4972.22) rotate(90)"/><rect class="k" x="7510.67" y="2617.53" width="66.39" height="66.39" rx="3.14" ry="3.14" transform="translate(10194.59 -4893.14) rotate(90)"/><rect class="k" x="7510.67" y="2696.61" width="66.39" height="66.39" rx="3.14" ry="3.14" transform="translate(10273.67 -4814.06) rotate(90)"/><rect class="k" x="7610.43" y="2807.54" width="67.61" height="38.56" rx="10.26" ry="10.26" transform="translate(10471.06 -4817.41) rotate(90)"/><rect class="k" x="7610.43" y="2886.87" width="67.61" height="38.56" rx="10.26" ry="10.26" transform="translate(10550.38 -4738.09) rotate(90)"/><rect class="k" x="7567.2" y="2886.87" width="67.61" height="38.56" rx="10.26" ry="10.26" transform="translate(10507.15 -4694.86) rotate(90)"/><rect class="k" x="7610.43" y="2966.19" width="67.61" height="38.56" rx="10.26" ry="10.26" transform="translate(10629.71 -4658.76) rotate(90)"/><rect class="k" x="7433.79" y="2102.45" width="66.39" height="66.39" rx="3.14" ry="3.14" transform="translate(9602.63 -5331.34) rotate(90)"/><rect class="k" x="7433.79" y="2182.26" width="66.39" height="66.39" rx="3.14" ry="3.14" transform="translate(9682.44 -5251.53) rotate(90)"/><rect class="k" x="7433.79" y="2262.08" width="66.39" height="66.39" rx="3.14" ry="3.14" transform="translate(9762.26 -5171.72) rotate(90)"/><rect class="k" x="7433.79" y="2341.4" width="66.39" height="66.39" rx="3.14" ry="3.14" transform="translate(9841.58 -5092.39) rotate(90)"/><rect class="k" x="7433.79" y="2421.21" width="66.39" height="66.39" rx="3.14" ry="3.14" transform="translate(9921.39 -5012.58) rotate(90)"/><rect class="k" x="7433.79" y="2497.61" width="66.39" height="66.39" rx="3.14" ry="3.14" transform="translate(9997.79 -4936.18) rotate(90)"/><rect class="k" x="7433.79" y="2576.69" width="66.39" height="66.39" rx="3.14" ry="3.14" transform="translate(10076.87 -4857.1) rotate(90)"/><rect class="k" x="7433.79" y="2655.77" width="66.39" height="66.39" rx="3.14" ry="3.14" transform="translate(10155.95 -4778.02) rotate(90)"/><rect class="k" x="7433.79" y="2734.36" width="66.39" height="66.39" rx="3.14" ry="3.14" transform="translate(10234.54 -4699.43) rotate(90)"/><rect class="k" x="7433.79" y="2812.95" width="66.39" height="66.39" rx="3.14" ry="3.14" transform="translate(10313.13 -4620.84) rotate(90)"/><rect class="k" x="7510.67" y="2774.92" width="66.39" height="66.39" rx="3.14" ry="3.14" transform="translate(10351.98 -4735.75) rotate(90)"/><rect class="k" x="7404.42" y="2923.84" width="125.13" height="66.39" rx="4.31" ry="4.31" transform="translate(10424.02 -4509.95) rotate(90)"/><rect class="k" x="7460.68" y="2903.22" width="166.38" height="66.39" rx="4.97" ry="4.97" transform="translate(10480.28 -4607.45) rotate(90)"/><rect class="k" x="7403.77" y="1914.51" width="126.43" height="66.39" rx="4.33" ry="4.33" transform="translate(9414.69 -5519.28) rotate(90)"/><rect class="k" x="7459.5" y="1934.36" width="168.74" height="66.39" rx="5.01" ry="5.01" transform="translate(9511.42 -5576.31) rotate(90)"/><rect class="k" x="7356.91" y="2084.31" width="66.39" height="66.39" rx="3.14" ry="3.14" transform="translate(9507.61 -5272.61) rotate(90)"/><rect class="k" x="7356.91" y="2163.23" width="66.39" height="66.39" rx="3.14" ry="3.14" transform="translate(9586.53 -5193.69) rotate(90)"/><rect class="k" x="7356.91" y="2242.63" width="66.39" height="66.39" rx="3.14" ry="3.14" transform="translate(9665.93 -5114.28) rotate(90)"/><rect class="k" x="7356.91" y="2322.04" width="66.39" height="66.39" rx="3.14" ry="3.14" transform="translate(9745.34 -5034.88) rotate(90)"/><rect class="k" x="7356.91" y="2400.95" width="66.39" height="66.39" rx="3.14" ry="3.14" transform="translate(9824.25 -4955.96) rotate(90)"/><rect class="k" x="7356.91" y="2478.08" width="66.39" height="66.39" rx="3.14" ry="3.14" transform="translate(9901.38 -4878.83) rotate(90)"/><rect class="k" x="7356.91" y="2558.14" width="66.39" height="66.39" rx="3.14" ry="3.14" transform="translate(9981.44 -4798.77) rotate(90)"/><rect class="k" x="7356.91" y="2637.22" width="66.39" height="66.39" rx="3.14" ry="3.14" transform="translate(10060.52 -4719.69) rotate(90)"/><rect class="k" x="7356.91" y="2715" width="66.39" height="66.39" rx="3.14" ry="3.14" transform="translate(10138.3 -4641.92) rotate(90)"/><rect class="k" x="7356.91" y="2796.03" width="66.39" height="66.39" rx="3.14" ry="3.14" transform="translate(10219.33 -4560.88) rotate(90)"/><rect class="k" x="7356.91" y="2873.48" width="66.39" height="66.39" rx="3.14" ry="3.14" transform="translate(10296.78 -4483.43) rotate(90)"/><rect class="k" x="7356.91" y="2953.21" width="66.39" height="66.39" rx="3.14" ry="3.14" transform="translate(10376.51 -4403.7) rotate(90)"/><rect class="k" x="7280.03" y="1965.04" width="66.39" height="66.39" rx="3.14" ry="3.14" transform="translate(9311.46 -5315) rotate(90)"/><rect class="k" x="7280.03" y="2043.14" width="66.39" height="66.39" rx="3.14" ry="3.14" transform="translate(9389.56 -5236.89) rotate(90)"/><rect class="k" x="7280.03" y="2123.2" width="66.39" height="66.39" rx="3.14" ry="3.14" transform="translate(9469.62 -5156.84) rotate(90)"/><rect class="k" x="7280.03" y="2201.26" width="66.39" height="66.39" rx="3.14" ry="3.14" transform="translate(9547.68 -5078.77) rotate(90)"/><rect class="k" x="7280.03" y="2281.76" width="66.39" height="66.39" rx="3.14" ry="3.14" transform="translate(9628.19 -4998.27) rotate(90)"/><rect class="k" x="7280.03" y="2359.14" width="66.39" height="66.39" rx="3.14" ry="3.14" transform="translate(9705.56 -4920.9) rotate(90)"/><rect class="k" x="7280.03" y="2439.52" width="66.39" height="66.39" rx="3.14" ry="3.14" transform="translate(9785.94 -4840.52) rotate(90)"/><rect class="k" x="7280.03" y="2517.62" width="66.39" height="66.39" rx="3.14" ry="3.14" transform="translate(9864.04 -4762.41) rotate(90)"/><rect class="k" x="7280.03" y="2597.84" width="66.39" height="66.39" rx="3.14" ry="3.14" transform="translate(9944.26 -4682.19) rotate(90)"/><rect class="k" x="7280.03" y="2677.9" width="66.39" height="66.39" rx="3.14" ry="3.14" transform="translate(10024.32 -4602.14) rotate(90)"/><rect class="k" x="7280.03" y="2757.14" width="66.39" height="66.39" rx="3.14" ry="3.14" transform="translate(10103.56 -4522.89) rotate(90)"/><rect class="k" x="7280.03" y="2833.29" width="66.39" height="66.39" rx="3.14" ry="3.14" transform="translate(10179.71 -4446.74) rotate(90)"/><path class="k" d="M7268.78,2932.35h88.89a8.72,8.72,0,0,1,8.72,8.72V2990a8.72,8.72,0,0,1-8.72,8.72h-88.89a8.73,8.73,0,0,1-8.73-8.73v-48.94A8.73,8.73,0,0,1,7268.78,2932.35Z" transform="translate(10278.77 -4347.69) rotate(90)"/><path class="k" d="M7345.66,1904.47h88.89a8.73,8.73,0,0,1,8.73,8.73v48.94a8.73,8.73,0,0,1-8.73,8.73h-88.89a8.72,8.72,0,0,1-8.72-8.72v-48.94a8.73,8.73,0,0,1,8.73-8.73Z" transform="translate(9327.77 -5452.45) rotate(90)"/><rect class="at" x="6617.63" y="2436.51" width="1067.46" height="28.36" rx="7.47" ry="7.47" transform="translate(9602.06 -4700.66) rotate(90)"/><path class="ar" d="M7137.18,3089.43V1812c0-11.73-7.29-22.74-17.74-26.78l-520.28-200.72c-5.33-2.06-10.53,1.33-10.53,6.87V3307.21c0,6.38,6,10.31,12.13,8l517.65-197.51C7129.46,3113.44,7137.18,3101.82,7137.18,3089.43Z"/><path class="at" d="M6587.94,3318.62l.71-1735.73s-11.85,9.26-17.27,15.18-13.81,21-13.81,21V3278.16s10.71,16.92,13.81,20.89S6587.94,3318.62,6587.94,3318.62Z"/><polygon class="au" points="7080.7 3087 7080.7 1818.94 6619.13 1653.02 6619.13 3251.97 7080.7 3087"/><path class="s" d="M6632.12,2445.45H7688.45A5.58,5.58,0,0,1,7694,2451v4.9a0,0,0,0,1,0,0H6626.57a0,0,0,0,1,0,0V2451a5.55,5.55,0,0,1,5.55-5.55Z" transform="translate(9611 -4709.61) rotate(90)"/><path class="y" d="M8935.16,3411.75V1438.88l-211.45,31.5L8448.22,1580.1c0,3.2-54.93,92.12-103.47,256-44.3,149.56-83.29,361.57-70.37,627.83,0,0-18.06,277,140,782Z"/><path class="av" d="M8167.71,2975.93l-17.28-4.48s1.49-48.33-18.78-68.35c0,0-163.91-170.57-193.39-196.32,0,0-56.42-12.9-48.62,45.86,0,0-2.54,10.64,9.82,25.9l61.34,68.37-279.42-82.7a52.6,52.6,0,0,0-27.75-.74c-11.95,3-25.59,11-30.75,31,0,0-3.12,10.85,4.4,24.65,6.47,11.87,17.77,15.83,30.71,19.71l218.56,74.59-249.36-69c-13.85-4.06-39.42-9.13-51.39-1.09-10.23,6.87-18.83,22.3-18.77,38.42,0,0,2.11,27.95,35.67,41.09l238.62,74.35L7634,2947.5c-15.88-4.34-54.12-12.8-65.67,3.14-3.1,4.28-4.89,10.59-6.06,16.69,0,0-9.92,21,18.73,39.53,5,3.2,19.89,8.79,25.54,10.49L7821,3087.71l-147-38.12c-15.28-4.43-33.69-4.44-43.37,8.18a31.65,31.65,0,0,0-6.45,15s-7.82,32,32,44.86l262.35,68.79,60.07,12.4a161.8,161.8,0,0,0,48.54,2.71c11.32-1.11,23.8-3.58,35.28-8.55,0,0,23.14-9,25.26-15.07l22.27,7Z"/><path class="aw" d="M8166.38,2984.8l-17.28-4.48s1.49-48.34-18.78-68.35c0,0-163.91-170.58-193.39-196.32,0,0-56.42-12.91-48.62,45.85,0,0-2.54,10.64,9.82,25.9l61.34,68.37-279.42-82.7a52.5,52.5,0,0,0-27.75-.73c-11.95,3-25.59,11-30.75,31,0,0-3.12,10.85,4.4,24.66,6.47,11.86,17.76,15.82,30.71,19.7l218.56,74.59-249.37-69c-13.84-4.05-39.41-9.13-51.39-1.09-10.22,6.87-18.82,22.3-18.76,38.43,0,0,2.11,28,35.67,41.08L7830,3006.07l-197.33-49.71c-15.88-4.34-54.12-12.8-65.67,3.15-3.1,4.27-4.89,10.58-6.07,16.69,0,0-9.91,21,18.74,39.52,5,3.21,19.89,8.79,25.54,10.49l214.47,70.37-147-38.12c-15.27-4.44-33.68-4.45-43.36,8.17a31.7,31.7,0,0,0-6.45,15s-7.82,32,32,44.86l262.35,68.8,60.07,12.39a162.08,162.08,0,0,0,48.53,2.72c11.33-1.12,23.81-3.59,35.29-8.56,0,0,23.14-9,25.26-15.07l22.27,7Z"/><rect class="k" x="8122.4" y="2948.53" width="30.71" height="279.15" transform="translate(15019.48 8417.41) rotate(-163.03)"/><path class="y" d="M8105.91,3226.67l37.92,9.55s321.17,90.65,589.34,157.69c87.07,21.77,161.29,38.89,202.09,46.64l-.1-355.72c-133.86-5.84-563.59-96.41-563.59-96.41l-178.13-45.33-19.27,61.53Z"/><path class="k" d="M8217.06,3221.26a11.91,11.91,0,1,0,16.78-1.47A11.91,11.91,0,0,0,8217.06,3221.26Z"/><path class="k" d="M8254.15,3232.17a11.91,11.91,0,1,0,16.79-1.46A11.92,11.92,0,0,0,8254.15,3232.17Z"/><circle class="k" cx="8301" cy="3250" r="11.91" transform="matrix(0.54, -0.84, 0.84, 0.54, 1100.25, 8505.31)"/><path class="ax" d="M7697.62,2797.12l-13.24,44.79a7.11,7.11,0,0,1-9,4.76l-24.35-7.74s-18.95-7.31-14.76-32.72c0,0,4.29-21.16,25.11-25.08,0,0,8.44-1,23.51,4.86l7.87,2.28A7.11,7.11,0,0,1,7697.62,2797.12Z"/><path class="ax" d="M7631.67,2876.09,7619,2919a6.81,6.81,0,0,1-8.6,4.56l-23.3-7.41s-18.13-7-14.13-31.32c0,0,4.11-20.25,24-24,0,0,8.08-.92,22.51,4.64l7.53,2.19A6.81,6.81,0,0,1,7631.67,2876.09Z"/><path class="ax" d="M7623.84,2972.13l-9.23,37.35a5.87,5.87,0,0,1-7.22,4.26l-20.32-5.47s-15.87-5.31-13.38-26.38c0,0,2.75-17.58,19.73-21.58,0,0,6.92-1.1,19.54,3.12l6.56,1.59A5.87,5.87,0,0,1,7623.84,2972.13Z"/><path class="ax" d="M7684.46,3078.46l-9,36.53a5.72,5.72,0,0,1-7.05,4.16l-19.88-5.34s-15.52-5.19-13.08-25.81c0,0,2.68-17.19,19.3-21.09,0,0,6.76-1.08,19.11,3.05l6.41,1.55A5.73,5.73,0,0,1,7684.46,3078.46Z"/><path class="ax" d="M7953.8,2748l-21.14,19c-1.8,1.63-4.88,1-6.82-1.42l-12.42-15.43s-9.29-12.72.7-25.05c0,0,8.8-9.89,22.51-2.59,0,0,5.38,3.31,12.77,13.43l4.08,4.86C7955.44,2743.16,7955.58,2746.37,7953.8,2748Z"/><path class="av" d="M8034.59,1903.34l-16.37,4.25s1.41,45.78-17.79,64.73c0,0-155.24,161.57-183.17,186,0,0-53.43,12.22-46.05-43.44,0,0-2.4-10.07,9.31-24.52l58.1-64.76L7574,2103.88a49.82,49.82,0,0,1-26.29.69c-11.32-2.85-24.24-10.39-29.12-29.38,0,0-3-10.28,4.17-23.35,6.12-11.24,16.82-15,29.08-18.67l207-70.64-236.18,65.36c-13.11,3.84-37.33,8.65-48.67,1-9.68-6.51-17.83-21.12-17.77-36.39,0,0,2-26.48,33.78-38.91l226-70.42-186.9,47.07c-15,4.12-51.26,12.13-62.2-3-2.94-4-4.63-10-5.74-15.81,0,0-9.39-19.89,17.74-37.44,4.7-3,18.84-8.32,24.19-9.93l203.13-66.65-139.26,36.11c-14.47,4.2-31.9,4.21-41.07-7.75a30,30,0,0,1-6.11-14.24s-7.41-30.31,30.29-42.49l248.48-65.16,56.9-11.74a153.54,153.54,0,0,1,46-2.57c10.74,1.06,22.55,3.39,33.42,8.1,0,0,21.92,8.49,23.93,14.28l21.09-6.67Z"/><path class="aw" d="M8027.28,1899.24l-16.36,4.24s1.41,45.79-17.79,64.74c0,0-155.24,161.56-183.17,186,0,0-53.44,12.21-46.05-43.44,0,0-2.41-10.08,9.3-24.53l58.1-64.75-264.65,78.33a49.79,49.79,0,0,1-26.28.69c-11.33-2.85-24.24-10.39-29.13-29.39,0,0-2.95-10.27,4.17-23.35,6.13-11.23,16.82-15,29.08-18.66l207-70.65-236.18,65.37c-13.11,3.84-37.33,8.64-48.67,1-9.69-6.5-17.83-21.12-17.77-36.38,0,0,2-26.48,33.78-38.92l226-70.42-186.91,47.08c-15,4.12-51.25,12.13-62.2-3-2.93-4-4.63-10-5.74-15.8,0,0-9.39-19.9,17.75-37.44,4.69-3,18.83-8.33,24.19-9.94l203.13-66.64-139.26,36.1c-14.47,4.21-31.91,4.22-41.07-7.74a29.91,29.91,0,0,1-6.12-14.24s-7.4-30.31,30.29-42.49l248.49-65.16,56.89-11.74a153.28,153.28,0,0,1,46-2.57c10.73,1,22.55,3.39,33.42,8.1,0,0,21.92,8.49,23.92,14.28l21.1-6.67Z"/><rect class="k" x="7992.06" y="1664.58" width="30.71" height="279.15" transform="translate(16204.9 1385.95) rotate(164.38)"/><path class="y" d="M8062.08,1937.34l62.63-15.88,214-54.29v-.54q16.17-3.66,32.84-7.4c191.9-42.94,429.74-90.56,563.59-96.4l.1-370.41c-40.8,7.74-117.21,23.73-204,46.46C8570,1481.1,8370,1549.58,8218,1593l-243,61.65Z"/><path class="k" d="M8072.83,1692a11.91,11.91,0,1,1,16.78,1.47A11.91,11.91,0,0,1,8072.83,1692Z"/><path class="k" d="M8109.92,1681.1a11.91,11.91,0,1,1,16.79,1.47A11.91,11.91,0,0,1,8109.92,1681.1Z"/><path class="k" d="M8147.64,1670.93a11.91,11.91,0,1,1,16.79,1.47A11.91,11.91,0,0,1,8147.64,1670.93Z"/><path class="ax" d="M7583.3,2077l-12.54-42.41a6.74,6.74,0,0,0-8.51-4.51l-23.06,7.33s-17.94,6.92-14,31c0,0,4.07,20,23.78,23.75,0,0,8,.91,22.28-4.6l7.44-2.16A6.74,6.74,0,0,0,7583.3,2077Z"/><path class="ax" d="M7520.84,2002.2l-12-40.6a6.47,6.47,0,0,0-8.15-4.32l-22.06,7s-17.18,6.62-13.39,29.66c0,0,3.89,19.18,22.76,22.72,0,0,7.66.87,21.32-4.4l7.13-2.06A6.46,6.46,0,0,0,7520.84,2002.2Z"/><path class="ax" d="M7513.42,1911.24l-8.74-35.38a5.56,5.56,0,0,0-6.84-4l-19.25,5.18s-15,5-12.67,25c0,0,2.61,16.65,18.69,20.43,0,0,6.55,1,18.51-3l6.21-1.51A5.55,5.55,0,0,0,7513.42,1911.24Z"/><path class="ax" d="M7570.84,1810.53l-8.55-34.6a5.44,5.44,0,0,0-6.69-3.94l-18.82,5.06s-14.7,4.92-12.39,24.44c0,0,2.54,16.28,18.28,20,0,0,6.4,1,18.09-2.89l6.08-1.47A5.44,5.44,0,0,0,7570.84,1810.53Z"/><path class="ax" d="M7825.94,2123.54l-20-18c-1.71-1.54-4.62-.93-6.46,1.35l-11.76,14.61s-8.8,12.05.66,23.73c0,0,8.33,9.36,21.32,2.46,0,0,5.09-3.14,12.09-12.73l3.86-4.6C7827.49,2128.1,7827.63,2125.06,7825.94,2123.54Z"/><path class="w" d="M8062.08,1937.34c12.95-4.51,34.55-9.89,62.63-15.88l214-54.29v-.54q16.17-3.66,32.84-7.4c191.9-42.94,429.74-90.56,563.59-96.4V1641.32l-642.48,158.74a1295.24,1295.24,0,0,1-143.44,30.06c-80.16,12.15-137.46-56.06-137.46-56.06Z"/><path class="w" d="M8153.58,3070.39s35.82-25.52,87-31.73,111.86,7.58,111.86,7.58l582.73,136v-97.45c-133.86-5.84-563.59-96.41-563.59-96.41l-178.13-45.33Z"/><path class="ay" d="M5546.92,1702.65l-46.25-45.15a60.61,60.61,0,0,0-69.54-10.82c-48.33,24.26-127.9,74.17-168.33,154.6a63.53,63.53,0,0,0,21.24,81.16l45.33,30.63S5363,1783,5546.92,1702.65Z"/><path class="z" d="M4165.88,2571.16c1.58,23.24,8.4,44.82,18.08,64.3.29.6.57,1.17.85,1.72,33.31,65.62,130.06,97.49,203.5,102.31l30.44,2.71,7.77.69,506.6,45.15c-127.92-154.17-6.56-288.65-6.56-288.65l-142.33-33.28a508.07,508.07,0,0,1-128.73-49.5c-91.82-50.41-287.14-130.93-421,3-3.21,3.23-6.31,6.44-9.26,9.64-25.56,27.58-41.64,54.29-50.57,79.72A154.51,154.51,0,0,0,4165.88,2571.16Z"/><path class="ay" d="M4996.75,2803.06l-64.62-.78a60.64,60.64,0,0,1-56.83-41.52c-17-51.33-38-142.89-9.71-228.35A63.54,63.54,0,0,1,4938,2490l54.52,8.79S4926,2614.2,4996.75,2803.06Z"/><path class="ay" d="M4976.61,1617.34s29.56-41,64.83-79.8c24.58-27.06,73.24-72.16,73.24-72.16,4.6-5.06,5.47-11.84,1.92-15.07l-3.22-2.93c-3.55-3.22-9.62-1-14.82,3.36,0,0-32.19,27.14-73.15,72.23-43.88,48.29-64.92,79.73-64.92,79.73-4.65,7.1-5.46,11.84-1.92,15.06l3.23,2.93C4965.34,1623.92,4972,1622.41,4976.61,1617.34Z"/><path class="ay" d="M4935.32,1581.07s29.55-41,64.83-79.81c24.58-27,73.24-72.15,73.24-72.15,4.6-5.07,5.46-11.85,1.92-15.07l-3.23-2.93c-3.54-3.22-9.61-1-14.81,3.35,0,0-32.19,27.15-73.15,72.24-43.88,48.29-64.92,79.72-64.92,79.72-4.65,7.1-5.46,11.85-1.92,15.07l3.23,2.93C4924.05,1587.64,4930.72,1586.13,4935.32,1581.07Z"/><path class="ay" d="M4892.57,1546.58s29.55-41,64.82-79.81c24.59-27,73.25-72.15,73.25-72.15,4.6-5.07,5.46-11.85,1.92-15.07l-3.23-2.93c-3.54-3.22-9.61-1-14.81,3.35,0,0-32.19,27.15-73.16,72.24-43.87,48.29-64.91,79.72-64.91,79.72-4.65,7.1-5.47,11.85-1.92,15.07l3.22,2.93C4881.3,1553.15,4888,1551.64,4892.57,1546.58Z"/><path class="ay" d="M4491.42,2674.74s.28-50.52,6.47-102.61c4.32-36.3,17.77-101.27,17.77-101.27.81-6.79-2.43-12.82-7.18-13.38l-4.33-.51c-4.76-.57-8.42,4.74-10.12,11.32,0,0-10.45,40.79-17.64,101.29-7.71,64.78-6.59,102.59-6.59,102.59.33,8.49,2.42,12.82,7.18,13.39l4.32.51C4486.06,2686.64,4490.61,2681.54,4491.42,2674.74Z"/><path class="ay" d="M4436.74,2669.17s.28-50.52,6.47-102.61c4.32-36.3,17.77-101.27,17.77-101.27.81-6.79-2.42-12.82-7.18-13.38l-4.33-.52c-4.76-.56-8.42,4.75-10.12,11.33,0,0-10.45,40.79-17.64,101.28-7.7,64.79-6.59,102.6-6.59,102.6.33,8.48,2.42,12.82,7.18,13.39l4.32.51C4431.38,2681.07,4435.94,2676,4436.74,2669.17Z"/><path class="ay" d="M4381.91,2665.9s.28-50.53,6.47-102.62c4.32-36.29,17.77-101.26,17.77-101.26.81-6.8-2.43-12.82-7.18-13.39l-4.33-.51c-4.76-.57-8.42,4.74-10.12,11.32,0,0-10.45,40.79-17.64,101.29-7.71,64.78-6.6,102.59-6.6,102.59.34,8.49,2.43,12.82,7.19,13.39l4.32.51C4376.55,2677.79,4381.1,2672.69,4381.91,2665.9Z"/><path class="az" d="M4768.57,1309.89h0c119.9-56.7,378.88,70.8,378.88,70.8l-75.71-63.33c-55.34-48.51-146.29-94.4-216.25-71.54C4822.63,1256.55,4790.93,1276,4768.57,1309.89Z"/><path class="az" d="M4426.52,2742.89l-7.77-.69C4421.3,2742.5,4423.9,2742.73,4426.52,2742.89Z"/><path class="az" d="M4165.88,2571.16c2.2,29.57,11.73,51.09,18.08,64.3.29.6.57,1.17.85,1.72,33.31,65.62,130.06,97.49,203.5,102.31l30.44,2.71c-166-19.06-191-306.95-193.55-313-25.56,27.58-41.64,54.29-50.57,79.72A154.51,154.51,0,0,0,4165.88,2571.16Z"/><path class="ba" d="M6393.68,2880.81a6.37,6.37,0,0,1,5.27,2.35,5.31,5.31,0,0,1,.91,6.88c-2.72,4.79-5.48,9.55-8.22,14.33-.4.7-.76,1.42-1.36,2.55l4.38-1c4.76-1.06,9.56-2,14.27-3.22s7.31,2.45,7.82,6a3.49,3.49,0,0,1-1.14,2.72c-5.74,4.43-11.58,8.72-17.46,13.11l-3.26-4.37,16-12-.16-.36c-2.22.47-4.44.92-6.65,1.41-3.81.85-7.63,1.64-11.42,2.6a5.65,5.65,0,0,1-6.36-8.43c2.74-4.7,5.31-9.49,7.95-14.25a4.69,4.69,0,0,0,.68-2L6379.05,2899l-3.23-4.33q8.13-6.09,16.23-12.19a9,9,0,0,0,1.29-1.45Z"/><path class="bb" d="M6501.43,2934c.4,2.71.79,5.42,1.2,8.13a2.13,2.13,0,0,0,.37,1c4.07,5.41,3.83,11.66,3.29,17.87a34.71,34.71,0,0,1-5.24,15.74,104.08,104.08,0,0,0-4.92,9.21,5.61,5.61,0,0,0-.28,2.78c.3,4.15.78,8.29,1,12.45.07,1.4-.47,2.83-.83,4.83l-7.34-6.5c-.05,1.56-.05,2.59-.12,3.63-.23,3.25-.44,6.5-.74,9.74a5,5,0,0,1-.79,1.56v0c-.39-4.26-.93-8.52-1.08-12.78-.06-1.84.7-3.71,1.08-5.57l.93-.34,7.4,6.55c-.37-3.58-.11-7.18-1.21-10.3a11,11,0,0,1,1.19-10.61,83,83,0,0,0,5-8.93,34.18,34.18,0,0,0,3.4-20.36c-.37-2.47-1.66-4.8-2.48-7.21a41.46,41.46,0,0,1-1.17-4.09c-.43-1.9-.65-3.84-1.15-5.72a2.08,2.08,0,0,0-1.43-1.21c-.39-.06-.91.65-1.36,1a.66.66,0,0,0-.16.38c-1,5.12-3.85,9.35-6.73,13.56a5.39,5.39,0,0,0-1,2.5c-.16,2.42-1.65,3.24-3.72,3.81a16.2,16.2,0,0,0-10,7.72,6.42,6.42,0,0,0-.69,2.59c3.09-1.15,5.75-3.45,9-2.46l-6.7,14.9c.07-1.31.07-2.55.24-3.77a23.42,23.42,0,0,1,.83-3.89c.38-1.21,1-2.36,1.69-4a16.63,16.63,0,0,1-3.16,1.55c-1,.23-2.37.45-3-.05a3.25,3.25,0,0,1-1-2.88,18,18,0,0,1,2.66-5.36c2.57-3.41,6.32-5.19,10.21-6.68a2.61,2.61,0,0,0,1.33-1c1.44-2.69,2.81-5.41,4.14-8.15,1.14-2.36,2.21-4.75,3.29-7.14.2-.44.25-.95.41-1.41,1.19-3.34,3.29-4.26,6.41-2.79Z"/><path class="bc" d="M6394.56,2932.53l3.22-2,4.46,6c1.84,2.47,3.64,5,5.53,7.39,1.69,2.17,2.76,2.22,5,.19-2.05-2.75-4.18-5.49-6.18-8.32a23,23,0,0,1-2.56-4.53c-1.34-3.35-.62-5.32,2.26-7.41,2.7-2,5.37-4,8.18-6.1l3.38,4.53-8.14,6.07c-2.42,1.81-2.54,2.47-.74,4.92,2.14,2.91,4.32,5.8,6.63,8.89l11.09-8.28,3.4,4.55-2.79,2.08-11.27,8.41c-3.45,2.57-5.7,2.51-9-.24a7.89,7.89,0,0,0-1-.63Z"/><path class="ba" d="M6393.34,2881.06a9,9,0,0,1-1.29,1.45q-8.09,6.12-16.23,12.19l-.31-.34"/><path class="bd" d="M6450.09,2992.42l-.75,6.95c-2.28-2.78-4.72-5-3.53-8.67.47-1.49-.22-2.61-1.16-3.76a85.59,85.59,0,0,1-5.42-7.19c-2.9-4.45-2.27-7.41,2-10.58q3.86-2.9,7.73-5.77c3.53-2.6,6.42-2.68,9.25.56a98.73,98.73,0,0,1,9,12c2.36,3.74,1.51,6.42-2,9-2.8,2.09-5.63,4.15-8.4,6.28C6454.8,2992.84,6452.76,2993.9,6450.09,2992.42Zm.07-4a17.51,17.51,0,0,0,3.37-1.31c3-2.1,5.84-4.34,8.77-6.49,1.5-1.09,1.95-2.49.91-4-2-2.91-4.17-5.76-6.4-8.51a2.45,2.45,0,0,0-3.72-.32q-4.52,3.42-9.08,6.77a2.78,2.78,0,0,0-.87,4c.89,1.46,2,2.77,3.22,4.37.32-1.88.58-3.45.85-5C6450.19,2980.69,6451.77,2983.81,6450.16,2988.47Z"/><path class="be" d="M6418.59,2952l2.91-2.17,5.64,7.57c1.22,1.62,2.42,3.26,3.7,4.82,1.16,1.41,2.47,1.92,4.17.65,2.42-1.82,2.82-2.52,1.58-4.58-1.07-1.79-2.43-3.41-3.63-5.13a19.43,19.43,0,0,1-1.79-2.82c-2.85-6.07-.77-8,4.34-10.5,2.44-1.22,4.75.26,6.34,2.1,2.69,3.12,5.09,6.48,7.6,9.75,1.19,1.54,2.34,3.12,3.58,4.79l-3,2.22c-1.54-2.06-3.11-4.18-4.69-6.28s-3.12-4.31-4.82-6.35c-1.54-1.86-2.21-1.84-4.23-.34s-2.5,2.61-1.25,4.52,2.74,3.56,3.94,5.44a24.65,24.65,0,0,1,2.53,5c.65,1.85.6,3.83-1.16,5.17-2.23,1.71-4.33,4.13-7.62,2.55a10.47,10.47,0,0,1-3.75-2.56C6425.44,2961.31,6422.1,2956.66,6418.59,2952Z"/><path class="bf" d="M6472.9,2983.22l3.32,4.45-7.42,5.54c-2.24,1.67-4.51,3.32-6.72,5s-2.3,2.6-.77,4.75c2.55,3.6,5.22,7.11,7.84,10.65l1.09,1.46-2.67,2c-3.6-4.83-7.45-9.45-10.67-14.48-2.4-3.73-1.46-6.36,2.09-9Z"/><path class="bg" d="M6498,2946.34c.14.91.6,1.94.32,2.69s-1.32,1.2-2,1.78l-.46-.45,1.41-3.94Z"/><polygon class="bb" points="6487.02 3014.36 6487.03 3014.45 6487.01 3014.39 6487.02 3014.36"/><path class="bf" d="M6476.12,3017.28a3.36,3.36,0,1,0-.69,4.7A3.36,3.36,0,0,0,6476.12,3017.28Zm-4.85,3.61a2.69,2.69,0,1,1,3.76.55A2.69,2.69,0,0,1,6471.27,3020.89Z"/><path class="bf" d="M6470.9,3019.34l3.29-2.45.93,1.24a1.74,1.74,0,0,1,.34.64.84.84,0,0,1-.08.55,1.26,1.26,0,0,1-.41.48,1.11,1.11,0,0,1-.74.25,1.16,1.16,0,0,1-.75-.37,1.41,1.41,0,0,1,0,.35,3.32,3.32,0,0,1-.21.63l-.53,1.16-.35-.47.41-.88c.11-.26.2-.46.25-.61a1.27,1.27,0,0,0,.08-.35.61.61,0,0,0,0-.24,1.42,1.42,0,0,0-.14-.22l-.32-.43-1.46,1.09Zm2.12-1,.59.8a1.28,1.28,0,0,0,.36.35.51.51,0,0,0,.36.07.64.64,0,0,0,.35-.14.67.67,0,0,0,.28-.43.78.78,0,0,0-.19-.57l-.66-.89Z"/><path class="bh" d="M6302.56,2805.74c4.42-3.1,8.95-5.95,14.13-7.65a9.71,9.71,0,0,1,7.26.3,43.66,43.66,0,0,1,14,9.94,133.29,133.29,0,0,1,10.91,12.82c5.15,6.92,9.51,14.33,11.84,22.75.45,1.64.72,3.34,1.07,5a10.14,10.14,0,0,1-2.28,8.62,58.22,58.22,0,0,1-12.7,11.62,62.23,62.23,0,0,1-17.06,8.61c-10.28,3.27-20.65,2.81-31,.46a67.94,67.94,0,0,1-17.75-6.8,2.65,2.65,0,0,1-1.5-2c-2.95-14.79-1.67-29.12,4.82-42.82a51.82,51.82,0,0,1,12.12-15.67C6298.39,2809.14,6300.5,2807.47,6302.56,2805.74Zm40.92,17.86c-2.84-3.22-5.63-6.5-8.53-9.66a49,49,0,0,0-11.43-9.05c-2.59-1.53-4.91-1.31-7.45-.09a59.73,59.73,0,0,0-13.79,9c-4.82,4.29-9.21,8.94-12.12,14.73-5.94,11.81-7.24,24.34-5.13,37.28a2.38,2.38,0,0,0,1.22,1.4,61.74,61.74,0,0,0,23,6.49c7.19.62,14.32.21,21-2.68a105,105,0,0,0,11.56-5.94,42.38,42.38,0,0,0,13.32-12.14,3.62,3.62,0,0,0,.6-2.45,46.11,46.11,0,0,0-1.54-7C6351.82,2836.29,6347.78,2829.89,6343.48,2823.6Z"/><path class="bi" d="M6296.21,2901.3c.33.19.76.29,1,.56,1.31,1.71,2.62,3.42,3.83,5.21s1.05,3.39-.15,4.56-2.38.95-3.85.45c.35,1.52.57,3-.64,4.11a3.7,3.7,0,0,1-4.71.72,13.78,13.78,0,0,1-3.29-2.81c-1.15-1.32-2.08-2.84-3.1-4.28,0-.06,0-.17-.05-.55a6.56,6.56,0,0,0,1.27.43c.59.07,1.36.27,1.77,0,2.58-1.78,5-3.72,7.62-5.5C6297.15,2903.31,6296.2,2902.5,6296.21,2901.3Zm-2.62,7.39c-1.49,1.1-2.73,2-3.89,2.92a1.7,1.7,0,0,0-.54,1.26,3.38,3.38,0,0,0,3.62,2.71,2.94,2.94,0,0,0,2.36-3.84A22.55,22.55,0,0,0,6293.59,2908.69Zm.79-.5c.83,1.18,1.34,2.81,3,2.6a3.41,3.41,0,0,0,2.24-1.74c.65-1.48-.34-2.64-1.5-3.77-1,.73-1.92,1.41-2.85,2.11C6295,2907.62,6294.73,2907.88,6294.38,2908.19Z"/><path class="bj" d="M6275.57,2896.79c.58-.07.92-.21,1-.11,1.2,1.21,2.13.32,3.07-.36q2.67-2,5.32-3.92c2.08-1.54,2.08-1.54,1.41-4.28a7.07,7.07,0,0,1,1.37,1c1.31,1.7,2.59,3.44,3.86,5.18,2.16,3,2.07,6.37-.22,8.73-2.78,2.88-6.58,3.52-9.54,1.22a33.42,33.42,0,0,1-4.37-4.87C6276.86,2898.63,6276.32,2897.81,6275.57,2896.79Zm12.81,5.58c3.3-2.41,3.75-5.82,1.22-9-.52-.65-1-.86-1.68-.3q-3.63,2.74-7.31,5.41a1.73,1.73,0,0,0-.46,2.55C6281.87,2904.17,6285.14,2904.72,6288.38,2902.37Z"/><path class="bk" d="M6240.32,2848.66l-2.81-3.82c2,1.14,3.1-.39,4.33-1.31s3.22-1.45,2.39-3.84l2.75,2.19-1,.94c2,.88,4.31,1.53,3.3,4.6.54.23,1.07.43,1.59.68,2.61,1.23,3,3.58.76,5.45-.67.57-1.41,1-2.11,1.58-1,.79-2.6,1.31-1.31,3.33l-.55,0-3-4c2.86,1.24,4-1.19,5.66-2.3a2.43,2.43,0,0,0,.57-2.18c-.22-.66-1.1-1.13-1.76-1.59-.15-.11-.62.12-.87.3-.89.61-1.74,1.26-2.6,1.92s-2.37,1.17-1.28,3c-1.63-1-2.43-2.46-3.59-4.19,3.43,1.45,4.71-1.12,6.41-2.58.85-.73.53-1.84-.32-2.58s-1.57-1.22-2.58-.3c-.57.52-1.25.93-1.87,1.41-1.07.8-2.58,1.34-1.69,3.31Z"/><path class="bl" d="M6263.42,2880.56c.16-2.21.16-2.21,2.21-1.59.4-1,.55-2.3,1.24-3.06,1.93-2.16,5.31-1.07,6.54,1.92.46,1.11,1.12,2.14,1.71,3.25-.84.54-.84.54-2.13-.5-2.62,2.78-4.84.82-7.08-.93l-.27.37a9.46,9.46,0,0,0,.51,1.5c.45.86,1,1.66,1.47,2.54a2.34,2.34,0,0,1-1.42,3.41c-2.95,1.12-7.07-1.66-7.16-4.83-.05-1.91,1.14-2.89,3-2.45C6262.49,2880.3,6263,2880.43,6263.42,2880.56Zm1.49,2.3c-1.09-1.56-2.39-2.05-3.33-1.49a2.32,2.32,0,0,0-.36,3.29,5,5,0,0,0,2,1.82,2.43,2.43,0,0,0,2.08-.42c.37-.29.36-1.24.26-1.84A4.32,4.32,0,0,0,6264.91,2882.86Zm5.89-2.86c1.28-.95,1.63-2.27.87-3.28s-1.77-.91-2.86-.09c-1.31,1-1.68,2.43-.88,3.43C6268.61,2880.89,6269.63,2880.88,6270.8,2880Z"/><path class="bm" d="M6262,2863.65l2.88,2.31-.92.86c.23.11.43.24.64.32,1.32.49,2.56,1.1,2.8,2.68s-.77,2.63-1.95,3.51c-.74.56-1.5,1.1-2.24,1.66s-1.6.94-.9,2.09a.67.67,0,0,1-.19.59.88.88,0,0,1-.71-.17c-.76-1-1.49-1.94-2.18-2.95-.12-.17,0-.48,0-.73.26,0,.52,0,.77,0,.51,0,1.14.14,1.51-.1a31.44,31.44,0,0,0,3.15-2.39,1.88,1.88,0,0,0,.19-2.85c-.8-.82-1.66-1.35-2.79-.37-.88.77-1.85,1.43-2.81,2.12-.63.45-1.17.89-.66,1.79.08.14-.16.46-.25.69-.23-.11-.54-.17-.68-.35-.73-.93-1.42-1.87-2.09-2.83a2.12,2.12,0,0,1-.16-.78c.3,0,.6,0,.9,0a3.73,3.73,0,0,0,1.51-.1,17.67,17.67,0,0,0,2.28-1.6c1.08-.82,2.68-1.39,1.36-3.49Z"/><path class="bn" d="M6252.25,2857.06a4.84,4.84,0,0,1,7,1.26,4.42,4.42,0,0,1-1.18,6.42,4.86,4.86,0,0,1-7-1.06C6249.34,2861.42,6249.81,2858.85,6252.25,2857.06Zm1.44,1.13a13.06,13.06,0,0,0-1.83,3.2,3,3,0,0,0,.83,2.55,3,3,0,0,0,2.52.08,6.91,6.91,0,0,0,2.38-1.87,3,3,0,0,0,.08-4.13C6256.74,2857.12,6255.46,2857.24,6253.69,2858.19Z"/><path class="bn" d="M6272.46,2884.52a4.82,4.82,0,0,1,7,1.16,4.42,4.42,0,0,1-1.09,6.44,4.86,4.86,0,0,1-7-1C6269.6,2888.9,6270,2886.32,6272.46,2884.52Zm1.4,1.1a14.79,14.79,0,0,0-1.77,3.38,2.84,2.84,0,0,0,.89,2.39,2.81,2.81,0,0,0,2.4.09,7.15,7.15,0,0,0,2.41-1.84,3,3,0,0,0,.21-4.14C6277.07,2884.53,6275.73,2884.63,6273.86,2885.62Z"/><path class="bo" d="M6343.48,2823.6c4.3,6.29,8.34,12.69,10.75,20a46.11,46.11,0,0,1,1.54,7,3.62,3.62,0,0,1-.6,2.45,42.38,42.38,0,0,1-13.32,12.14,105,105,0,0,1-11.56,5.94c-6.71,2.89-13.84,3.3-21,2.68a61.74,61.74,0,0,1-23-6.49,2.38,2.38,0,0,1-1.22-1.4c-2.11-12.94-.81-25.47,5.13-37.28,2.91-5.79,7.3-10.44,12.12-14.73a59.73,59.73,0,0,1,13.79-9c2.54-1.22,4.86-1.44,7.45.09a49,49,0,0,1,11.43,9.05C6337.85,2817.1,6340.64,2820.38,6343.48,2823.6ZM6291,2862.25c-1.3.54-1.06,1.33-.46,2.22l2.14-1.58,1.63-1.21,3.36-1.25a26.42,26.42,0,0,0,19.33-1,7.59,7.59,0,0,0,1.26-.36,31.12,31.12,0,0,0,11.77-9.76,36.46,36.46,0,0,0,6.26-12.59c.86-3.28,1-6.76,2.83-9.77a1.49,1.49,0,0,0,.14-.24s0-.1-.07-.1h-4.66l-2.89-.4-4.44-.09-4,.44-5.3,1.3-5.6,2.32c-10.09,5-15.54,13.19-16.86,24.26-.1,1.18-.19,2.36-.29,3.54l-.74,1-2,2.16Z"/><path class="bp" d="M6330,2849.28a31.12,31.12,0,0,1-11.77,9.76,7.59,7.59,0,0,1-1.26.36,7.35,7.35,0,0,0-.81-1c-2.72-2.59-5.46-5.17-8.19-7.74l6.85-5.09L6321,2841c.81.76,1.6,1.53,2.42,2.28Z"/><path class="bq" d="M6330,2849.28l-6.61-6c-.82-.75-1.61-1.52-2.42-2.28l2.66-2.32,6.15-4.56,9.31-7.22c-1.79,3-2,6.49-2.83,9.77A36.46,36.46,0,0,1,6330,2849.28Z"/><path class="br" d="M6308,2850.63c2.73,2.57,5.47,5.15,8.19,7.74a7.35,7.35,0,0,1,.81,1,26.42,26.42,0,0,1-19.33,1c0-.49,0-1,0-1.48l3.44-3.67,5.9-4Z"/><path class="bs" d="M6307,2851.31q-3,2-5.9,4l-1.95.75a8.77,8.77,0,0,1,.72-1.92c5.65-8.08,11.34-16.14,17-24.22a13,13,0,0,0,1-2.06l5.3-1.3a15.44,15.44,0,0,1-.86,1.67c-5,7.13-10,14.25-15,21.4C6307,2850,6307.11,2850.73,6307,2851.31Z"/><path class="bt" d="M6317.86,2827.83a13,13,0,0,1-1,2.06c-5.65,8.08-11.34,16.14-17,24.22a8.77,8.77,0,0,0-.72,1.92l-4.06,1.92c.1-1.18.19-2.36.29-3.54a11.42,11.42,0,0,0,1.42-1.45q7.44-10.53,14.81-21.1a7.55,7.55,0,0,0,.63-1.71Z"/><path class="bu" d="M6307,2851.31c.09-.58,0-1.28.3-1.71,5-7.15,10-14.27,15-21.4a15.44,15.44,0,0,0,.86-1.67l4-.44a31.89,31.89,0,0,1-1.7,3.09c-3.12,4.51-6.32,9-9.42,13.47a15.5,15.5,0,0,0-1.23,2.89l-6.85,5.09Z"/><path class="bv" d="M6312.26,2830.15a7.55,7.55,0,0,1-.63,1.71q-7.38,10.57-14.81,21.1a11.42,11.42,0,0,1-1.42,1.45C6296.72,2843.34,6302.17,2835.13,6312.26,2830.15Z"/><path class="bw" d="M6314.82,2845.54a15.5,15.5,0,0,1,1.23-2.89c3.1-4.52,6.3-9,9.42-13.47a31.89,31.89,0,0,0,1.7-3.09l4.44.09c-2.24,3.24-4.51,6.47-6.7,9.75a18.86,18.86,0,0,0-1.28,2.77L6321,2841Z"/><path class="bx" d="M6323.63,2838.7a18.86,18.86,0,0,1,1.28-2.77c2.19-3.28,4.46-6.51,6.7-9.75l2.89.4c-1.28,1.81-2.59,3.59-3.82,5.43a11.84,11.84,0,0,0-.9,2.13Z"/><path class="by" d="M6329.78,2834.14a11.84,11.84,0,0,1,.9-2.13c1.23-1.84,2.54-3.62,3.82-5.43h4.66s.08.08.07.1a1.49,1.49,0,0,1-.14.24Z"/><path class="bz" d="M6297.68,2859c0,.49,0,1,0,1.48l-3.37,1.24-1.93-.53,2-2.16,1.74,0Z"/><path class="ca" d="M6297.68,2859h-1.57l-1.74,0,.74-1,4.06-1.92,1.95-.75Z"/><path class="cb" d="M6292.65,2862.89l-2.14,1.58c-.6-.89-.84-1.68.46-2.22Z"/><path class="cc" d="M6292.65,2862.89l-1.68-.64,1.37-1.11,1.93.53Z"/><path class="cd" d="M8007.43,3387c.85,3.35,1.65,6.74,2.53,10.08l9.57,36.34,7.85,29.78-18.94,19-9.63,9.63c-10.23-38.85-20.39-77.46-30.61-116.32,1.35.34,2.46.61,3.55.9q17,4.45,33.89,8.91a10.88,10.88,0,0,0,1.52.18"/><path class="ce" d="M8027.53,3463.29q-3.91-14.89-7.84-29.79-4.8-18.16-9.58-36.33c-.88-3.34-2.25-6.71-2.68-10.14a10.55,10.55,0,0,1-.27-1.48c.26.13.9.47,1.14.61l22.4,5.88,21.7,5.71c8.25,2.18,16.51,4.34,24.76,6.54,2.45.65,4.87,1.39,7.31,2.09-.26.28-.52.57-.79.84q-27.6,27.6-55.19,55.19C8028.18,3462.72,8027.85,3463,8027.53,3463.29Z"/><path class="cf" d="M8084.47,3406.38c-2.44-.7-4.86-1.44-7.31-2.09-8.25-2.2-16.51-4.36-24.76-6.54l-21.7-5.71-22.4-5.88c-.25-.15-.51-.24-.77-.37-.07-.06-.29-.18-.37-.24-1.43-6.29-3.11-12.36-4.8-18.81l96.58,25.16Z"/><path class="cd" d="M8079.91,3471.19c.8,3.15,1.58,6.32,2.41,9.46q10.67,40.14,21.36,80.29c.08.29.13.6.23,1-.42-.08-.76-.11-1.08-.2l-88.49-23.54c-.41-.11-.84-.15-1.25-.23l-.17-.16,13.41-13.36,7.39,2,44.44,11.81c.85.22,1.7.42,2.76.68-.87-3.28-1.66-6.31-2.47-9.34q-3.66-13.79-7.33-27.57-2.35-8.82-4.73-17.65l13.35-13.41Z"/><path class="ce" d="M8026.33,3524.49c3.94-4,7.87-7.93,11.85-11.85a1.78,1.78,0,0,1,1.43-.24c6.19,1.61,12.37,3.26,18.55,4.9.41.11.81.2,1.36.33-.13-.55-.21-1-.32-1.36-1.63-6.15-3.25-12.29-4.91-18.43a1.61,1.61,0,0,1,.46-1.85c3.9-3.83,7.76-7.7,11.64-11.56q2.37,8.84,4.73,17.65,3.68,13.78,7.33,27.57c.81,3,1.6,6.06,2.47,9.34-1.06-.26-1.91-.46-2.76-.68l-44.44-11.81Z"/><path class="cg" d="M7898.21,3439.61l71.64,71.65-71.64,71.64-71.65-71.64Zm30.16,88.14a16.39,16.39,0,0,0,8.65.53c6.17-1.34,10.67-5.05,13.9-10.31,4.68-7.58,1.67-14.9-5.18-18.84-3.32-1.91-6.91-1.81-10.44-.75-3,.9-5.93,2.15-8.92,3.14a18.21,18.21,0,0,1-4.28,1,3.84,3.84,0,0,1-3.66-2.25,3.69,3.69,0,0,1,.22-4.09,5.94,5.94,0,0,1,6.11-2.89c.62.08,1.24.21,1.94.34.62-2.86,1.23-5.69,1.85-8.54-4.41-1.25-8.52-.9-12.13,1.83a23.88,23.88,0,0,0-4.83,4.8c-2.76,3.74-3.55,7.95-1.65,12.34a13.17,13.17,0,0,0,14.93,7.77c2.82-.63,5.53-1.78,8.29-2.68,1.76-.58,3.51-1.22,5.3-1.71a4,4,0,0,1,3.42.62c2.16,1.52,2.55,4,1,6.54a10.1,10.1,0,0,1-10.94,4.78l-1.33-.26Zm-23.14,24.83a42,42,0,0,0,6.22.57c5.7-.32,9.69-3.59,12.74-8.13a11.35,11.35,0,0,0,.32-13,22.75,22.75,0,0,0-3.36-4.17c-7.28-7.35-14.61-14.64-21.92-22l-.71-.72-6.74,6.74.87.87,21.41,21.41c.55.55,1.1,1.1,1.59,1.69,1.65,2,1.83,3.82.5,5.67a5.57,5.57,0,0,1-5.83,2.54c-1-.16-1.9-.38-2.87-.58Z"/><path class="ch" d="M7898.21,3439.61l-71.65,71.65a3.69,3.69,0,0,1,.46-.74q7-7.07,14.1-14.11,28.13-28.14,56.27-56.27A5.76,5.76,0,0,1,7898.21,3439.61Z"/><path class="ci" d="M7928.37,3527.75l2.29-8.64,1.33.26a10.1,10.1,0,0,0,10.94-4.78c1.51-2.54,1.12-5-1-6.54a4,4,0,0,0-3.42-.62c-1.79.49-3.54,1.13-5.3,1.71-2.76.9-5.47,2.05-8.29,2.68a13.17,13.17,0,0,1-14.93-7.77c-1.9-4.39-1.11-8.6,1.65-12.34a23.88,23.88,0,0,1,4.83-4.8c3.61-2.73,7.72-3.08,12.13-1.83-.62,2.85-1.23,5.68-1.85,8.54-.7-.13-1.32-.26-1.94-.34a5.94,5.94,0,0,0-6.11,2.89,3.69,3.69,0,0,0-.22,4.09,3.84,3.84,0,0,0,3.66,2.25,18.21,18.21,0,0,0,4.28-1c3-1,5.91-2.24,8.92-3.14,3.53-1.06,7.12-1.16,10.44.75,6.85,3.94,9.86,11.26,5.18,18.84-3.23,5.26-7.73,9-13.9,10.31A16.39,16.39,0,0,1,7928.37,3527.75Z"/><path class="cj" d="M7905.23,3552.58l2.22-9c1,.2,1.91.42,2.87.58a5.57,5.57,0,0,0,5.83-2.54c1.33-1.85,1.15-3.69-.5-5.67-.49-.59-1-1.14-1.59-1.69l-21.41-21.41-.87-.87,6.74-6.74.71.72c7.31,7.31,14.64,14.6,21.92,22a22.75,22.75,0,0,1,3.36,4.17,11.35,11.35,0,0,1-.32,13c-3,4.54-7,7.81-12.74,8.13A42,42,0,0,1,7905.23,3552.58Z"/><path class="ck" d="M7838.26,3738.22a4.33,4.33,0,0,1,0-2.57q3.26-12,6.46-23.94a3.32,3.32,0,0,1,2.55-2.55q12.08-3.24,24.13-6.51a3.05,3.05,0,0,1,3.21.87l22.07,22.14c.76.76,1.5,1.54,2.23,2.32a1.29,1.29,0,0,1-.56,2.11c-5,1.37-10,2.74-15,4.07a2.88,2.88,0,0,1-2.9-1c-3.63-3.66-7.29-7.29-10.93-10.95a2.89,2.89,0,0,0-3.09-.84c-1.94.55-3.9,1.06-5.86,1.58a2.72,2.72,0,0,0-2.1,2.1c-.53,2-1.09,4-1.62,6.06a2.67,2.67,0,0,0,.73,2.76q5.58,5.55,11.13,11.11a3.1,3.1,0,0,1,.89,3.26c-1.33,4.73-2.59,9.48-3.88,14.22-.32,1.17-.93,1.49-2,1.06q-4.33-4.35-8.69-8.69a1.8,1.8,0,0,0-.46-.29Z"/><path class="ck" d="M8009.38,3578.76a4.68,4.68,0,0,1-.11,3c-1.24,4.58-2.43,9.17-3.65,13.76-.25,1-.8,1.36-1.69,1.2a1.43,1.43,0,0,1-.71-.43q-2.13-2.09-4.22-4.21a1.69,1.69,0,0,0-1.83-.49c-2.44.68-4.88,1.33-7.33,2a1.58,1.58,0,0,0-1.18,1.19c-.67,2.48-1.33,5-2,7.45a1.53,1.53,0,0,0,.44,1.61l5.42,5.43a1.63,1.63,0,0,0,1.74.41l22.9-6.2c.61-.17,1.23-.3,1.83-.5a1.44,1.44,0,0,1,1.74,1.77c-1.44,4.9-2.81,9.81-4.23,14.71a2.66,2.66,0,0,1-1.93,1.9l-24.59,6.74a2.79,2.79,0,0,1-2.88-.84l-13.18-13.19c-1.57-1.57-3.12-3.15-4.71-4.7a3,3,0,0,1-.85-3.17q3.3-12.21,6.55-24.44a2.88,2.88,0,0,1,2.2-2.2q12.19-3.24,24.4-6.48a3.82,3.82,0,0,1,2.32.14Z"/><path class="cl" d="M7987.41,3725c-2.44,1.12-5.1,1.45-7.64,2.2-.67.2-1.35.36-2,.51a1.79,1.79,0,0,1-.6-.07,2.44,2.44,0,0,1,.09-.54c.38-1,.75-2.1,1.19-3.12a1.24,1.24,0,0,1,.73-.57c1.81-.49,3.63-1,5.46-1.39a1.12,1.12,0,0,0,.9-.91q3-11.41,6.12-22.82a1.14,1.14,0,0,0-.34-1.24q-8.35-8.32-16.68-16.68a1.25,1.25,0,0,0-1.36-.35q-11.34,3.07-22.69,6.09a1.18,1.18,0,0,0-1,1q-3,11.35-6.09,22.7a1.2,1.2,0,0,0,.34,1.34q8.37,8.32,16.69,16.68a1.1,1.1,0,0,0,1.23.35c1.92-.55,3.88-1,5.8-1.6a6.33,6.33,0,0,0,2.24-1.21,2.61,2.61,0,0,0,.05-3.93c-2-2-4.07-4.06-6.1-6.1l-10.56-10.6c-.64-.65-.64-.81,0-1.45l1.44-1.43c.49-.49.72-.48,1.22,0q2.05,2,4.1,4.06c4.23,4.23,8.48,8.44,12.68,12.7a10.19,10.19,0,0,1,1.78,2.44,5.27,5.27,0,0,1-.58,5.72,9.35,9.35,0,0,1-5.43,3.56c-2,.59-4,1.1-6,1.62a4.4,4.4,0,0,1-4.42-1.24q-8.59-8.58-17.15-17.2a4.23,4.23,0,0,1-1.12-4.32c2.08-7.79,4.15-15.59,6.26-23.37a4.52,4.52,0,0,1,3.41-3.33l19.45-5.21,3.74-1a4.38,4.38,0,0,1,4.47,1.2q8.47,8.47,17,16.93a4.64,4.64,0,0,1,1.3,4.86c-2.07,7.71-4.12,15.42-6.2,23.12a13.32,13.32,0,0,1-.65,1.57Z"/><path class="cm" d="M7854.58,3754.54a1.8,1.8,0,0,1,.46.29q4.35,4.34,8.69,8.69l0,0,0,.06Z"/><path class="ck" d="M7956.86,3612.72q11.24,11.24,22.47,22.46a3.15,3.15,0,0,1,.93,3.37q-3.3,12.19-6.54,24.39a2.8,2.8,0,0,1-2.14,2.15l-24.63,6.6a2.84,2.84,0,0,1-2.94-.77q-9-9-18-18a2.87,2.87,0,0,1-.79-3c2.21-8.19,4.39-16.38,6.6-24.57a2.87,2.87,0,0,1,2.17-2.15c2-.52,3.95-1.06,5.93-1.59a1,1,0,0,0,.49-1.63c-.11-.13-.23-.24-.35-.36l-23.72-23.72c-.78-.78-.79-1.63,0-2.22a2.37,2.37,0,0,1,.69-.3l14.3-4.06a2.79,2.79,0,0,1,2.93.8Q7945.53,3601.41,7956.86,3612.72Zm1.77,25.57c-1-1-2-2-3-3a1,1,0,0,0-1.07-.31c-2.68.73-5.38,1.43-8.06,2.19a1.37,1.37,0,0,0-.8.83c-.75,2.63-1.43,5.29-2.16,7.93a1.14,1.14,0,0,0,.34,1.25q2.88,2.85,5.73,5.74a1.2,1.2,0,0,0,1.31.33c2.6-.72,5.2-1.44,7.82-2.09a1.09,1.09,0,0,0,.93-.92q1-4,2.13-7.94a1,1,0,0,0-.29-1.13C7960.56,3640.24,7959.6,3639.26,7958.63,3638.29Z"/><path class="cn" d="M7930.41,3704.57l-.87,2.43-3.87-1.17c-2.65-.77-5.3-1.53-7.95-2.31-1.68-.49-3.35-1-5-1.52a4.59,4.59,0,0,0-.59-.95q-5.35-5.39-10.75-10.76-7-7-13.95-13.93a3.76,3.76,0,0,0-1-.47c.69-2.63,1.34-5.28,2.11-7.88.16-.54.78-.93,1.19-1.39a7.36,7.36,0,0,0,1,.42c.91.28,1.84.52,2.76.77l36.33,36.33A4.16,4.16,0,0,0,7930.41,3704.57Z"/><path class="co" d="M7963.48,3692.06a16.41,16.41,0,0,1,5.4-3.78c2.72-1,5.09-.31,7.25,1.45a.67.67,0,0,1,.07,1.09,23.34,23.34,0,0,1-1.81,1.78,1,1,0,0,1-.89.12,4.28,4.28,0,0,0-5.63.48,16.44,16.44,0,0,0-3.61,3.88,2.81,2.81,0,0,0-.29,2.93,1.67,1.67,0,0,0,2.44.92,32.61,32.61,0,0,0,3.62-2.31,44.38,44.38,0,0,1,6.28-4.25c1.69-.81,3.47-1.25,5.14-.14,2.84,1.87,4.44,4.42,3,8.24a15.63,15.63,0,0,1-2,3.55,18.7,18.7,0,0,1-6.51,5.6,7,7,0,0,1-8.07-.59,6.82,6.82,0,0,1-.55-.53.65.65,0,0,1-.05-1,22.34,22.34,0,0,1,1.9-1.87.91.91,0,0,1,.89-.05c1.93,1.5,3.8,1.24,5.62-.15a18.29,18.29,0,0,0,4.8-5.08,2.89,2.89,0,0,0-.24-3.73,1.79,1.79,0,0,0-2.29-.47,19,19,0,0,0-2.72,1.59c-1.78,1.29-3.47,2.68-5.25,4a9,9,0,0,1-3.8,1.67,4.79,4.79,0,0,1-4.05-1.15c-3.44-2.94-2.71-6.45-1-9.21a15.67,15.67,0,0,1,1.19-1.62C7962.73,3692.88,7963.18,3692.4,7963.48,3692.06Z"/><path class="cp" d="M7912.7,3702c1.67.51,3.34,1,5,1.52,2.65.78,5.3,1.54,7.95,2.31l3.87,1.17a6.77,6.77,0,0,1-1.63,1q-12.22,3.33-24.46,6.57a6.3,6.3,0,0,1-1.24.09c-.31-1.15-.62-2.31-.95-3.46-.26-1-.55-1.89-.83-2.84-.05-.3-.08-.61-.16-.91l-2.55-9.68c.22,0,.45.07.67.12l1.39.35a3.76,3.76,0,0,0,.46.2l8.81,2.57C7910.26,3701.35,7911.48,3701.67,7912.7,3702Z"/><path class="cq" d="M7930.41,3704.57a4.16,4.16,0,0,1-.66-.43l-36.33-36.33a5.77,5.77,0,0,1,.6.09c1.63.41,3.25.84,4.87,1.26l4.48,1.25a4.4,4.4,0,0,0,.47.64q13.6,13.63,27.23,27.24a7.53,7.53,0,0,0,.84.65c-.38,1.4-.75,2.8-1.13,4.2C7930.65,3703.62,7930.53,3704.1,7930.41,3704.57Z"/><path class="cr" d="M7912.7,3702c-1.22-.33-2.44-.65-3.65-1l-8.81-2.57a3.76,3.76,0,0,1-.46-.2l-1-1q-6.81-6.79-13.61-13.59a2.87,2.87,0,0,0-.78-.4c.54-2.1,1.09-4.19,1.64-6.29.09-.36.22-.71.34-1.07a3.76,3.76,0,0,1,1,.47q7,6.94,13.95,13.93,5.39,5.39,10.75,10.76A4.59,4.59,0,0,1,7912.7,3702Z"/><path class="cs" d="M7903.37,3670.41l-4.48-1.25c.2-.58.67-.23.94-.19,5.47.79,10.95,1.63,16.42,2.44,1.06.16,2.12.23,3.18.35.13.28.28.55.38.83.21.65.4,1.3.6,1.95-.15.05-.3.16-.44.14-.42,0-.84-.15-1.26-.23l-4.49-1.3-.14.25a9.28,9.28,0,0,0,.67.85q8.07,8.09,16.16,16.16c.84.84,1.75,1.63,2.63,2.44l-.78,3a12.1,12.1,0,0,1-1-.79q-11.32-11.33-22.67-22.64a3.67,3.67,0,0,0-1.48-.91C7906.23,3671.08,7904.79,3670.77,7903.37,3670.41Z"/><path class="ct" d="M7919.43,3671.76c-1.06-.12-2.12-.19-3.18-.35-5.47-.81-10.95-1.65-16.42-2.44-.27,0-.74-.39-.94.19-1.62-.42-3.24-.85-4.87-1.26a5.77,5.77,0,0,0-.6-.09c-.92-.25-1.85-.49-2.76-.77a7.36,7.36,0,0,1-1-.42,3.44,3.44,0,0,1,.51-.25l7.78-2.06a2.22,2.22,0,0,0,.65.33c1.22.22,2.44.42,3.66.61,4.75.72,9.5,1.44,14.26,2.13a10.6,10.6,0,0,0,1.69,0c.26.92.52,1.84.77,2.77C7919.17,3670.67,7919.3,3671.22,7919.43,3671.76Z"/><path class="cu" d="M7903.37,3670.41c1.42.36,2.86.67,4.26,1.09a3.67,3.67,0,0,1,1.48.91q11.36,11.31,22.67,22.64a12.1,12.1,0,0,0,1,.79l-.85,3.1a7.53,7.53,0,0,1-.84-.65q-13.62-13.62-27.23-27.24A4.4,4.4,0,0,1,7903.37,3670.41Z"/><path class="cv" d="M7884.42,3683.25a2.87,2.87,0,0,1,.78.4q6.81,6.78,13.61,13.59l1,1-1.39-.35c-.22-.05-.45-.08-.67-.12l-1.08-.35-5.25-1.57c-1.69-.5-3.39-1-5.08-1.47-1.51-.44-3-.92-4.52-1.38.77-2.89,1.53-5.78,2.3-8.67C7884.19,3684,7884.31,3683.61,7884.42,3683.25Z"/><path class="cw" d="M7896.64,3697.41l1.08.35,2.55,9.68c.08.3.11.61.16.91-.86.27-1.72.51-2.57.8-.45.15-.88.37-1.32.56-.11-.09-.24-.17-.35-.27l-8.26-8.26a3.24,3.24,0,0,1-.27-.35c1.14-.42,2.28-.87,3.43-1.27,1.66-.57,3.33-1.1,5-1.68C7896.29,3697.81,7896.46,3697.57,7896.64,3697.41Z"/><path class="cx" d="M7918.25,3667.37a10.6,10.6,0,0,1-1.69,0c-4.76-.69-9.51-1.41-14.26-2.13-1.22-.19-2.44-.39-3.66-.61a2.22,2.22,0,0,1-.65-.33l7.61-2.07,9.39-2.52a5.73,5.73,0,0,1,.92-.09,4,4,0,0,1,.27.64C7916.88,3662.63,7917.56,3665,7918.25,3667.37Z"/><path class="cl" d="M7999.15,3597.05c.54.54,1.1,1,1.6,1.62a1.09,1.09,0,0,1,.24.82c-.36,1.48-.75,3-1.19,4.4a1.13,1.13,0,0,1-.65.65c-1.44.42-2.88.81-4.34,1.16a1.12,1.12,0,0,1-.87-.26c-1.09-1-2.12-2.11-3.2-3.16a.84.84,0,0,1-.25-1c.4-1.4.77-2.81,1.13-4.22a1,1,0,0,1,.8-.77c1.39-.35,2.78-.73,4.15-1.12a.91.91,0,0,1,1.06.3C7998.12,3596.05,7998.64,3596.54,7999.15,3597.05Z"/><path class="cy" d="M7918.71,3674.45c.42.08.84.18,1.26.23.14,0,.29-.09.44-.14a1.12,1.12,0,0,0,.31-.05l7.78-2.65a2.46,2.46,0,0,0,.43-.26l7.16,7.2a5.06,5.06,0,0,1-.79-.06l-12.45-3.3a5.16,5.16,0,0,0-.79-.07l-.07.18c.14.15.26.31.4.45q5.89,5.89,11.79,11.78a3.87,3.87,0,0,0,.61.42l-.53,2a4.72,4.72,0,0,1-.75-.56q-7.18-7.17-14.36-14.36A3.57,3.57,0,0,1,7918.71,3674.45Z"/><path class="cz" d="M7928.93,3671.58a2.46,2.46,0,0,1-.43.26l-7.78,2.65a1.12,1.12,0,0,1-.31.05c-.2-.65-.39-1.3-.6-1.95-.1-.28-.25-.55-.38-.83-.13-.54-.26-1.09-.41-1.62-.25-.93-.51-1.85-.77-2.77-.69-2.37-1.37-4.74-2.07-7.1a4,4,0,0,0-.27-.64,2.19,2.19,0,0,1,1.84.77C7921.5,3664.11,7925.21,3667.85,7928.93,3671.58Z"/><path class="da" d="M7934.79,3688.18a3.87,3.87,0,0,1-.61-.42q-5.91-5.88-11.79-11.78c-.14-.14-.26-.3-.4-.45l.07-.18a5.16,5.16,0,0,1,.79.07l12.45,3.3a5.06,5.06,0,0,0,.79.06,2.2,2.2,0,0,1,.63,2.25C7936.11,3683.42,7935.44,3685.8,7934.79,3688.18Z"/><path class="db" d="M7918.71,3674.45a3.57,3.57,0,0,0,.44.79q7.17,7.2,14.36,14.36a4.72,4.72,0,0,0,.75.56l-.72,2.69c-.88-.81-1.79-1.6-2.63-2.44q-8.1-8.07-16.16-16.16a9.28,9.28,0,0,1-.67-.85l.14-.25Z"/><path class="dc" d="M7896.64,3697.41c-.18.16-.35.4-.56.47-1.66.58-3.33,1.11-5,1.68-1.15.4-2.29.85-3.43,1.27l-3-3c-.71-.69-1.41-1.39-2.11-2.1a2.66,2.66,0,0,1-.73-2.78c1.51.46,3,.94,4.52,1.38,1.69.5,3.39,1,5.08,1.47Z"/><path class="dd" d="M7984.12,3668.47a3.91,3.91,0,0,1,0,5.69,4.08,4.08,0,1,1-5.77-5.78A4,4,0,0,1,7984.12,3668.47Zm-5.27,5.18a3.38,3.38,0,1,0,4.81-4.76c-1.44-1.46-3.35-1.32-5,.35A3.23,3.23,0,0,0,7978.85,3673.65Z"/><path class="de" d="M7896.54,3709.71c.44-.19.87-.41,1.32-.56.85-.29,1.71-.53,2.57-.8.28,1,.57,1.89.83,2.84.33,1.15.64,2.31.95,3.46a3.68,3.68,0,0,1-1.2-.48C7899.49,3712.71,7898,3711.2,7896.54,3709.71Z"/><path class="df" d="M7978.85,3673.65a3.23,3.23,0,0,1-.23-4.41c1.69-1.67,3.6-1.81,5-.35a3.38,3.38,0,1,1-4.81,4.76Zm3.13-3.09a1.09,1.09,0,0,0-.64-1.42,1.29,1.29,0,0,0-1.09,0,17.53,17.53,0,0,0-1.64,1.58l3.18,3.18.59-.59-1.21-1.21c.75-1,.79-1,1.65-.27l.58.47.7-.71C7983.35,3671.33,7983,3670.48,7982,3670.56Z"/><path class="co" d="M7982,3670.56c1-.08,1.37.77,2.12,1.06l-.7.71-.58-.47c-.86-.69-.9-.69-1.65.27l1.21,1.21-.59.59-3.18-3.18a17.53,17.53,0,0,1,1.64-1.58,1.29,1.29,0,0,1,1.09,0A1.09,1.09,0,0,1,7982,3670.56Zm-2.39.13c.56.19.59,1.08,1.29.58.48-.33.55-.89.19-1.17C7980.37,3669.55,7980.17,3670.36,7979.59,3670.69Z"/><path class="df" d="M7979.59,3670.69c.58-.33.78-1.14,1.48-.59.36.28.29.84-.19,1.17C7980.18,3671.77,7980.15,3670.88,7979.59,3670.69Z"/><path class="dg" d="M7108.17,1424c-8.48-6.15-16.84-12.21-25.19-18.28-5.61-4.07-6-5.61-3-12q15.45-32.34,30.92-64.65c.37-.79.74-1.59,1.18-2.35,1.81-3,3.18-3.23,5.63-.74,6.86,7,13.6,14,20.53,20.88,2.27,2.25,2.59,4.42,1.54,7.36-7.64,21.41-15.12,42.87-22.79,64.26-.88,2.46-.51,3.67,1.61,5.22,11.42,8.35,22.68,16.89,34,25.36.45.34.92.63,1.71,1.17.76-2.71,1.45-5.1,2.1-7.51,1.59-5.84,3.19-11.68,4.71-17.53.62-2.36,1.84-2.62,3.54-1.17,5.78,4.94,11.6,9.84,17.19,15a5.67,5.67,0,0,1,1.23,4.46c-1.65,9.12-3.59,18.19-5.4,27.29-.5,2.55-1.77,2.41-3.49,1.18l-15-10.69c-.61-.43-1.27-.8-2.11-1.33-2.38,9.73-4.67,19.21-7,28.67-1.13,4.56-1.49,4.75-5.57,2.35q-22.31-13.14-44.54-26.39c-5.09-3-5.46-4.29-3.41-9.84,3.43-9.23,7-18.42,10.49-27.63C7107.42,1426.12,7107.77,1425.12,7108.17,1424Zm8.72-92.4a25.1,25.1,0,0,0-1.3,2.19q-14.42,31.67-28.84,63.33c-.73,1.58-.49,2.38.85,3.36,7.14,5.26,14.21,10.61,21.32,15.92a17.52,17.52,0,0,0,1.91,1c.44-1.1.83-2,1.16-2.88l6.18-16.73q8.3-22.5,16.55-45c.35-1,.53-2.58,0-3.14C7128.94,1343.64,7123,1337.76,7116.89,1331.62ZM7146,1484.07c.4-1.4.72-2.39,1-3.41,1.85-7.27,3.61-14.56,5.57-21.81a3.23,3.23,0,0,0-1.47-4.12c-8.91-6.28-17.73-12.69-26.58-19.06l-10.81-7.75c-3.43,9.47-6.69,18.53-10,27.57-.71,1.93.24,2.79,1.74,3.7,9.24,5.61,18.43,11.29,27.64,17Zm28.71-18.59c1.39-6.42,2.45-12.36,4-18.17.91-3.36.45-5.54-2.5-7.66-4-2.87-7.61-6.26-11.71-9.69-2,7.77-3.86,15-5.59,22.33a3.16,3.16,0,0,0,1.05,2.36,32.8,32.8,0,0,0,3.52,2.62Z"/><path class="al" d="M7212.4,1649.43l7.6-6.85q10.32-9.28,20.66-18.54l22.19-19.91,2.31-2.08a1.38,1.38,0,0,1,.24.14c7.16,5.34,14.33,10.66,21.44,16a23.44,23.44,0,0,1,7,8,16,16,0,0,1,.15,14.33c-.39.88-.84,1.74-1.26,2.61l-3.05,4.08c-.58.56-1.18,1.11-1.75,1.68a33.39,33.39,0,0,1-19.15,10,23,23,0,0,1-9.48-.28,34.34,34.34,0,0,1-10.67-5.28c-3.65-2.54-7.17-5.28-10.74-7.93l-.59-.44c-.19.15-.34.25-.48.37q-5.51,4.93-11,9.87c-.84.76-1.64,1.56-2.46,2.34Zm33.2-11.88c.18.17.3.31.44.42a66.9,66.9,0,0,0,13.24,8.33,10.59,10.59,0,0,0,9.53-.14,27.56,27.56,0,0,0,5.79-3.89,25.37,25.37,0,0,0,6-6.82c1.47-2.66,1.35-4.74-.62-7a40.14,40.14,0,0,0-4.6-4.71c-2.49-2.08-5.18-3.92-7.82-5.9Z"/><path class="al" d="M7120,1579.75c.73-.6,1.48-1.17,2.19-1.8l26-23.32,23.72-21.31.59-.5.29.2c7.16,5.35,14.33,10.66,21.45,16.06a22.58,22.58,0,0,1,7.25,8.75,15.39,15.39,0,0,1-.78,14.61c-6.37,10.77-15.76,17-28.46,17.61a21.35,21.35,0,0,1-11.06-2.74,60.79,60.79,0,0,1-8.83-5.71c-2.38-1.81-4.78-3.57-7.17-5.36l-.63-.47-5.4,4.83-8.08,7.26a5.45,5.45,0,0,0-.46.5l-10.93-8.17Zm54.9-31.16-22,19.74c.18.17.31.31.45.42a66.49,66.49,0,0,0,13.24,8.34,10.53,10.53,0,0,0,9.47-.13,29.21,29.21,0,0,0,6.93-4.88,21.73,21.73,0,0,0,5.07-6.1c1-2,1.34-4-.08-5.91a39.38,39.38,0,0,0-3.05-3.53A64.85,64.85,0,0,0,7174.92,1548.59Z"/><path class="al" d="M7233,1554.87l10.78,8.06-14.13,12.57.62.47c2.93,2.18,5.87,4.35,8.77,6.56a30,30,0,0,1,8.23,8.75c1.49,2.57,2.33,5.28,1.41,8.28a15.77,15.77,0,0,1-2.44,4.6,42.9,42.9,0,0,1-6.3,6.41l-21,18.79-1.2,1.06-10.93-8.17,3.07-2.76c7-6.23,13.95-12.44,20.87-18.72a15.13,15.13,0,0,0,2.64-3.4,3.82,3.82,0,0,0-.36-4.39,17.54,17.54,0,0,0-4.09-3.84c-2.6-2-5.22-3.9-7.89-5.9l-30.2,27.1-10.78-8.06Z"/><path class="dh" d="M6841.08,2947c24.29-2.14,48.1-4.25,71.91-6.32q43.38-3.78,86.77-7.51c9-.78,18-1.58,27.07-2.49,2.87-.29,4.45.39,5.29,3.34,6.31,22.27,12.88,44.44,19.25,66.69a10.91,10.91,0,0,1-.12,5.46c-6.27,24.15-12.73,48.29-18.94,72.45-.92,3.59-2.65,5-6,5.84q-72,18.89-144,38c-13.6,3.6-27.19,7.28-41.25,11.06Zm145.86,67.45c-1.9,7.74-4,15.48-5.62,23.24-.65,3-2,4.25-4.83,4.93-4.88,1.17-9.73,2.64-14.54,4v23.62c11-3,21.7-6,32.4-8.6,3.41-.82,4.57-2.32,5.4-5.55,3.95-15.34,8.15-30.66,12.26-46l23.77-4.19c-5.48-19.36-10.61-37.66-15.95-55.86a4,4,0,0,0-3.55-2.2c-10.28.59-20.59,1.4-30.9,2.29-9.14.79-18.3,1.82-27.44,2.63-14.55,1.29-29.08,2.47-43.63,3.73-9,.77-17.94,1.67-26.91,2.4s-18.23,1.37-27.34,2c-3,.22-4.26,1.49-4.24,4.74q.15,33.84,0,67.74c0,3.46,1.24,4.2,4.49,3.52,6.33-1.32,12.66-2.32,19-3.45v58.67l71.23-19v-52.26Z"/><path class="di" d="M6824.67,3001.49v11.81l-17,3,12.21,6-11.63,10,16.3-2.88V3041l-34.69,6.12c-4.29-9.92,2.48-16,12.42-21.93-10.43-1.89-16.22-6.13-12.47-17.56Z"/><path class="di" d="M6824.61,3119l-35.22,6.21v-12l10.94-1.93v-10.35l-10.81,1.9v-12.15l35.12-6.19v11.67l-11.65,2.05v10.66l11.62-2Z"/><path class="dj" d="M6801.19,3072.86V3083l-11.83,2.08v-32.32l11.34-2v9.87l23.8-4.19v12.28Z"/><path class="dk" d="M6824.65,2967.27v28.05l-35.22,6.21v-11.7l23.19-4.09v-16.35Z"/><path class="dl" d="M6879.29,3033.45c-6.33,1.13-12.66,2.13-19,3.45-3.25.68-4.51-.06-4.49-3.52q.18-33.91,0-67.74c0-3.25,1.23-4.52,4.24-4.74,9.11-.65,18.22-1.27,27.34-2s18-1.63,26.91-2.4c14.55-1.26,29.08-2.44,43.63-3.73,9.14-.81,18.3-1.84,27.44-2.63,10.31-.89,20.62-1.7,30.9-2.29a4,4,0,0,1,3.55,2.2c5.34,18.2,10.47,36.5,15.95,55.86l-23.77,4.19h-.52c-4-14.28-8-28.61-12.26-42.79-.39-1.28-2.74-2.39-4.31-2.28-14.44,1-28.92,2.33-43.39,3.6-8.1.71-16.22,1.53-24.64,2.33v54.2l-.37,0-23.22,4.09-.38.16V2973l-23.26,2v58.49Z"/><path class="dm" d="M6950.52,3020.89v52.26l-71.23,19v-58.67l.37,0,23.26-4.1.38-.16v32.88l23.22-6.31v-30.66l.37,0,23.26-4.1Z"/><path class="dn" d="M7011.49,3010.08h.52c-4.11,15.33-8.31,30.65-12.26,46-.83,3.23-2,4.73-5.4,5.55-10.7,2.58-21.37,5.64-32.4,8.6V3046.6c4.81-1.33,9.66-2.8,14.54-4,2.79-.68,4.18-1.91,4.83-4.93,1.66-7.76,3.72-15.5,5.62-23.24h.45Z"/><path class="do" d="M6986.94,3014.46l-36.42,6.43-.37.15v-28.51c9.25-.83,17.55-1.52,25.86-2.34,3.05-.31,4.69.42,5.45,3.68,1.61,7,3.91,13.74,5.93,20.59Z"/><path class="dp" d="M6987.39,3014.46c-2-6.85-4.32-13.58-5.93-20.59-.76-3.26-2.4-4-5.45-3.68-8.31.82-16.61,1.51-25.86,2.34V3021l-23.26,4.1v-54.2c8.42-.8,16.54-1.62,24.64-2.33,14.47-1.27,28.95-2.57,43.39-3.6,1.57-.11,3.92,1,4.31,2.28,4.27,14.18,8.22,28.51,12.26,42.79Z"/><path class="dq" d="M6902.92,3029.37l-23.26,4.1V2975l23.26-2Z"/><path class="dr" d="M6926.52,3025.12v30.66l-23.22,6.31v-32.88Z"/><path class="ds" d="M7040.08,1920.28v1.31c-.32.88-.67,1.74-.93,2.64q-5.4,18-10.78,36.1-4.52,15.15-9.05,30.29l-.75,2.56-9.61-1-9.07-1-9.72-1-9.27-1-9.91-1.06-7.39-.81-9.63-1-9.45-1-11.5-1.18-9.26-1-11.41-1.16-11.41-1.21-15.62-1.62c-4.67-.49-9.35-1-14-1.52s-9.42-1-14.12-1.5c-3.87-.41-7.74-.85-11.6-1.24-5.12-.52-10.22-1-15.33-1.49a6.42,6.42,0,0,0-1.24.1l-1.69-.33c0-.34,0-.68,0-1v-185.6c0-.36,0-.71,0-1.09l9,2.53,9.82,2.78,9.36,2.64,11.88,3.37,9.35,2.63,9.83,2.79,9.26,2.62,9.73,2.76,9.16,2.6,11.79,3.36,9,2.56,9.54,2.73,9.45,2.64,10.1,2.85,9.27,2.61,11.78,3.35L6995,1833l11.32,3.25,9.17,2.61c1.05.3,2.1.62,3.14.93.57,2.22,1.11,4.35,1.67,6.48l9,33.92q4.78,18,9.58,35.92C7039.25,1917.5,7039.67,1918.89,7040.08,1920.28Zm-64.9-12-.07.21c-.18,1.13-.34,2.28-.55,3.41-.65,3.34-1.32,6.68-2,10-.81,4.11-1.6,8.23-2.43,12.33-.23,1.11-.56,2.18-.84,3.29l-19-2.07a17.67,17.67,0,0,0-.27,2.22q0,10.14,0,20.29c0,.24.05.49.08.78a349.59,349.59,0,0,0,36.09,3.46c.09-.24.16-.4.21-.57,2-7.08,4-14.15,5.88-21.26s3.77-14.18,5.63-21.28a27.94,27.94,0,0,0,1.4-6.31c1.44.21,2.87.37,4.31.65,6.17,1.18,12.34,2.39,18.51,3.59l1,.2a33.54,33.54,0,0,0-1.16-5.62c-.88-3.42-1.79-6.85-2.68-10.27s-1.71-6.59-2.56-9.89l-2.88-11q-1.2-4.62-2.41-9.22-1.6-6.18-3.23-12.36c-.53-2-1.05-4.06-1.59-6.08-.2-.77-.23-.77-.95-1s-1.49-.43-2.23-.64l-1.95-.58c-1.83-.54-3.65-1.08-5.48-1.6-.9-.26-1.81-.47-2.7-.74-1.74-.5-3.47-1-5.2-1.54s-3.48-.94-5.22-1.41c-.81-.22-1.62-.44-2.42-.68-1.74-.5-3.47-1-5.2-1.53-1-.29-2.06-.54-3.08-.81-.84-.23-1.68-.46-2.52-.71-1-.29-2-.63-3.06-.92s-2.11-.54-3.17-.83c-.81-.21-1.62-.44-2.42-.68-1-.3-2-.63-3.06-.92s-2.12-.55-3.17-.83c-.75-.2-1.49-.43-2.24-.65-1.08-.31-2.16-.65-3.25-1s-2-.52-3-.79c-.81-.22-1.62-.45-2.42-.69-1-.3-2-.62-3.06-.91s-2-.53-3-.8c-.77-.21-1.55-.42-2.32-.65-1.09-.32-2.17-.66-3.25-1s-1.93-.5-2.89-.78c-1.67-.49-3.34-1-5-1.5s-3.48-.94-5.22-1.42c-.78-.21-1.55-.44-2.33-.67-1-.3-2-.63-3.06-.92s-2-.51-3-.8c-1.68-.49-3.34-1-5-1.5s-3.6-1-5.4-1.45c-.78-.21-1.56-.44-2.33-.67-1.05-.31-2.1-.64-3.16-.94s-2-.54-3.07-.81c-.78-.21-1.56-.43-2.33-.66l-5.3-1.55c-1-.29-2.05-.52-3.07-.82-1.74-.5-3.47-1-5.2-1.54s-3.61-1-5.41-1.45l-2.42-.67c-1.74-.51-3.47-1-5.2-1.54-1.06-.3-2.12-.53-3.17-.83-1.68-.49-3.34-1-5-1.51s-3.48-.94-5.22-1.41l-2.32-.67-4.43-1.3c-.22,1.44-.14,75.86.09,76.63l22.13,4.3c0,.38.06.76.06,1.14q0,31.1,0,62.2v1.11c7.34,1,14.51,1.49,21.67,1.86,0-.28.06-.45.07-.64.07-2.3.16-4.6.19-6.91,0-3.22.05-6.44.07-9.66l.18-39.9c0-.53,0-1.06,0-1.59a5.22,5.22,0,0,1,.15-.73c.19.44.3.68.4.92l21.57,53.88c.79,2,1.61,3.91,2.39,5.87a1.75,1.75,0,0,0,1.64,1.2c1.62.17,3.24.44,4.87.63s3.49.4,5.23.57q5.5.54,11,1c.55,0,1.09.08,1.63.11v-3c-.07-8.81-.16-17.63-.2-26.44s0-17.35,0-26c0-.68,0-1.37,0-2,1.09.27,2.18.58,3.27.8,11.95,2.47,23.91,4.41,35.87,7.17Z"/><path class="dt" d="M6865,1886.45l-22.13-4.3c-.23-.77-.31-75.19-.09-76.63l4.43,1.3,2.32.67c1.74.47,3.49.91,5.22,1.41s3.34,1,5,1.51c1,.3,2.11.53,3.17.83,1.73.5,3.46,1,5.2,1.54l2.42.67c1.8.49,3.61.94,5.41,1.45s3.46,1,5.2,1.54c1,.3,2.05.53,3.07.82l5.3,1.55c.77.23,1.55.45,2.33.66,1,.27,2.05.52,3.07.81s2.11.63,3.16.94c.77.23,1.55.46,2.33.67,1.8.48,3.6.94,5.4,1.45s3.34,1,5,1.5c1,.29,2,.52,3,.8s2,.62,3.06.92c.78.23,1.55.46,2.33.67,1.74.48,3.48.92,5.22,1.42s3.34,1,5,1.5c1,.28,1.93.5,2.89.78s2.16.65,3.25,1c.77.23,1.55.44,2.32.65,1,.27,2,.52,3,.8s2,.61,3.06.91c.8.24,1.61.47,2.42.69,1,.27,2,.51,3,.79s2.17.65,3.25,1c.75.22,1.49.45,2.24.65,1,.28,2.11.53,3.17.83s2,.62,3.06.92c.8.24,1.61.47,2.42.68,1.06.29,2.12.54,3.17.83s2,.63,3.06.92c.84.25,1.68.48,2.52.71,1,.27,2.05.52,3.08.81,1.73.5,3.46,1,5.2,1.53.8.24,1.61.46,2.42.68,1.74.47,3.48.92,5.22,1.41s3.46,1,5.2,1.54c.89.27,1.8.48,2.7.74,1.83.52,3.65,1.06,5.48,1.6l1.95.58c.74.21,1.49.44,2.23.64s.75.2.95,1c.54,2,1.06,4,1.59,6.08q1.62,6.18,3.23,12.36,1.22,4.6,2.41,9.22l2.88,11q1.28,4.95,2.56,9.89c.89,3.42,1.8,6.85,2.68,10.27a33.54,33.54,0,0,1,1.16,5.62l-1-.2c-6.17-1.2-12.34-2.41-18.51-3.59-1.44-.28-2.87-.44-4.31-.65-.07-.21-.14-.42-.22-.63s-.11-.64-.18-1c-1.43-5.82-2.84-11.64-4.3-17.45q-4-16-8.07-32c-.3-1.17-.59-2.34-.89-3.51l-.42-.16-6.45-1.83c-3.36-1-6.72-1.93-10.09-2.88l-6.54-1.86c-3.33-1-6.66-1.91-10-2.85-2.34-.67-4.67-1.31-7-2-3.4-1-6.79-1.91-10.19-2.85-2-.55-4-1.07-6-1.61l-8.79-2.39c-1.68-.45-3.37-.91-5.05-1.32a6.78,6.78,0,0,0-2.35-.43v.78q0,16.68,0,33.36,0,7,0,13.9c0,.45,0,.89-.07,1.34a4,4,0,0,1-.75-1.24c-2.45-5.93-4.93-11.85-7.34-17.79-3.51-8.64-7-17.29-10.48-25.94-1.22-3-2.48-6-3.69-9a3.51,3.51,0,0,0-2.66-2.47c-.15,0-.3-.12-.46-.16l-11.4-3.2c-1.75-.49-3.49-1-5.23-1.5s-3.61-.94-5.46-1.43c0,.27-.06.48-.07.69,0,3.53-.09,7.06-.09,10.6q0,24.13,0,48.28c0,.72,0,1.45,0,2.17Z"/><path class="du" d="M6936,1900.06c0,.68,0,1.37,0,2,0,8.68,0,17.35,0,26s.13,17.63.2,26.44v3c-.54,0-1.08-.06-1.63-.11q-5.51-.51-11-1c-1.74-.17-3.49-.36-5.23-.57s-3.25-.46-4.87-.63a1.75,1.75,0,0,1-1.64-1.2c-.78-2-1.6-3.91-2.39-5.87l-21.57-53.88c-.1-.24-.21-.48-.4-.92a5.22,5.22,0,0,0-.15.73c0,.53,0,1.06,0,1.59l-.18,39.9c0,3.22,0,6.44-.07,9.66,0,2.31-.12,4.61-.19,6.91,0,.19,0,.36-.07.64-7.16-.37-14.33-.82-21.67-1.86v-1.11q0-31.11,0-62.2c0-.38,0-.76-.06-1.14l.11,0,1,.2c22.15,4.17,44.3,8.82,66.45,12.73,1.09.19,2.19.42,3.28.63A.23.23,0,0,1,6936,1900.06Z"/><path class="dv" d="M6999.15,1912.13c.08.21.15.42.22.63a27.94,27.94,0,0,1-1.4,6.31c-1.86,7.1-3.71,14.21-5.63,21.28s-3.91,14.18-5.88,21.26c-.05.17-.12.33-.21.57a349.59,349.59,0,0,1-36.09-3.46c0-.29-.08-.54-.08-.78q0-10.14,0-20.29a17.67,17.67,0,0,1,.27-2.22l19,2.07c.28-1.11.61-2.18.84-3.29.83-4.1,1.62-8.22,2.43-12.33.66-3.34,1.33-6.68,2-10,.21-1.13.37-2.28.55-3.41a1.72,1.72,0,0,0,.07-.21l0-.21h.11c.65.07,1.3.11,1.95.22C6984.53,1909.49,6991.85,1911.47,6999.15,1912.13Z"/><path class="dt" d="M6975.16,1908c-12-2.76-23.92-4.7-35.87-7.17-1.09-.22-2.18-.53-3.27-.8a.23.23,0,0,0-.11,0c0-.18,0-.37,0-.55q0-14.1,0-28.19v-1a1,1,0,0,1,.29,0l9.74,2.52c2.81.73,5.62,1.48,8.43,2.2,3.65.93,7.31,1.84,11,2.76,1,.26,1.08.26,1.37,1.29q2.74,9.71,5.47,19.41a75.12,75.12,0,0,0,3,9.56Z"/><path class="dt" d="M6975.18,1908.24a1.72,1.72,0,0,1-.07.21A1.72,1.72,0,0,0,6975.18,1908.24Z"/><path class="dw" d="M6777.2,1852.18l10.13,2c0,4.24,0,8.45,0,12.66s.07,8.46.1,12.76l4,.78q0-6.33.1-12.65c0-4.18,0-8.37.07-12.65l20.93,4.07v34.93l-8.36-1.62v-24.28c-1.85-.46-3.62-.78-5.5-1.15v24.36l-21.49-4.18C6777,1886.35,6777,1854.25,6777.2,1852.18Z"/><path class="dw" d="M6787.46,1840.92l4.19.65.17-25.4,20.82,4v35l-8.31-1.62v-24.18l-5.52-1.07v24.14l-21.61-4.2v-35l10.26,2Z"/><path class="al" d="M6787.94,1893.39v24l15.69,3.2c.1-8,.18-16,.14-24l8.82,1.72v34.41l-35.44-6.89v-34.49Z"/><path class="k" d="M6975.27,1908a75.12,75.12,0,0,1-3-9.56q-2.73-9.7-5.47-19.41c-.29-1-.32-1-1.37-1.29-3.65-.92-7.31-1.83-11-2.76-2.81-.72-5.62-1.47-8.43-2.2l-9.74-2.52a1,1,0,0,0-.29,0v1q0,14.1,0,28.19c0,.18,0,.37,0,.55-1.09-.21-2.19-.44-3.28-.63-22.15-3.91-44.3-8.56-66.45-12.73l-1-.2c0-.72,0-1.45,0-2.17q0-24.13,0-48.28c0-3.54.06-7.07.09-10.6,0-.21,0-.42.07-.69,1.85.49,3.66.94,5.46,1.43s3.48,1,5.23,1.5l11.4,3.2c.16,0,.31.13.46.16a3.51,3.51,0,0,1,2.66,2.47c1.21,3,2.47,6,3.69,9,3.5,8.65,7,17.3,10.48,25.94,2.41,5.94,4.89,11.86,7.34,17.79a4,4,0,0,0,.75,1.24c0-.45.07-.89.07-1.34q0-6.95,0-13.9,0-16.68,0-33.36v-.78a6.78,6.78,0,0,1,2.35.43c1.68.41,3.37.87,5.05,1.32l8.79,2.39c2,.54,4,1.06,6,1.61,3.4.94,6.79,1.9,10.19,2.85,2.34.65,4.67,1.29,7,2,3.33.94,6.66,1.9,10,2.85l6.54,1.86c3.37.95,6.73,1.92,10.09,2.88l6.45,1.83.42.16c.3,1.17.59,2.34.89,3.51q4,16,8.07,32c1.46,5.81,2.87,11.63,4.3,17.45.07.32.12.64.18,1-7.3-.66-14.62-2.64-21.93-3.87C6976.57,1908.15,6975.92,1908.11,6975.27,1908Z"/></svg>